{"glyphs":{"0":{"ha":972,"x_min":0,"x_max":833,"o":"m 555 139 l 555 1111 l 278 1111 l 278 139 l 555 139 m 139 0 l 139 139 l 0 139 l 0 1111 l 139 1111 l 139 1250 l 694 1250 l 694 1111 l 833 1111 l 833 139 l 694 139 l 694 0 l 139 0 z "},"1":{"ha":972,"x_min":0,"x_max":833,"o":"m 0 0 l 0 139 l 278 139 l 278 833 l 0 833 l 0 972 l 139 972 l 139 1111 l 278 1111 l 278 1250 l 555 1250 l 555 139 l 833 139 l 833 0 l 0 0 z "},"2":{"ha":972,"x_min":0,"x_max":833,"o":"m 0 0 l 0 555 l 139 555 l 139 694 l 555 694 l 555 1111 l 278 1111 l 278 833 l 0 833 l 0 1111 l 139 1111 l 139 1250 l 694 1250 l 694 1111 l 833 1111 l 833 694 l 694 694 l 694 555 l 278 555 l 278 139 l 555 139 l 555 278 l 833 278 l 833 0 l 0 0 z "},"3":{"ha":972,"x_min":0,"x_max":833,"o":"m 139 0 l 139 139 l 0 139 l 0 416 l 278 416 l 278 139 l 555 139 l 555 555 l 139 555 l 139 694 l 555 694 l 555 1111 l 278 1111 l 278 833 l 0 833 l 0 1111 l 139 1111 l 139 1250 l 694 1250 l 694 1111 l 833 1111 l 833 694 l 694 694 l 694 555 l 833 555 l 833 139 l 694 139 l 694 0 l 139 0 z "},"4":{"ha":972,"x_min":0,"x_max":833,"o":"m 555 0 l 555 278 l 0 278 l 0 1250 l 278 1250 l 278 416 l 555 416 l 555 1250 l 833 1250 l 833 0 l 555 0 z "},"5":{"ha":972,"x_min":0,"x_max":833,"o":"m 139 0 l 139 139 l 0 139 l 0 416 l 278 416 l 278 139 l 555 139 l 555 555 l 0 555 l 0 1250 l 833 1250 l 833 972 l 555 972 l 555 1111 l 278 1111 l 278 694 l 694 694 l 694 555 l 833 555 l 833 139 l 694 139 l 694 0 l 139 0 z "},"6":{"ha":972,"x_min":0,"x_max":833,"o":"m 555 139 l 555 555 l 278 555 l 278 139 l 555 139 m 139 0 l 139 139 l 0 139 l 0 1111 l 139 1111 l 139 1250 l 694 1250 l 694 1111 l 833 1111 l 833 833 l 555 833 l 555 1111 l 278 1111 l 278 694 l 694 694 l 694 555 l 833 555 l 833 139 l 694 139 l 694 0 l 139 0 z "},"7":{"ha":972,"x_min":0,"x_max":833,"o":"m 139 0 l 139 278 l 278 278 l 278 555 l 416 555 l 416 833 l 555 833 l 555 1111 l 278 1111 l 278 972 l 0 972 l 0 1250 l 833 1250 l 833 833 l 694 833 l 694 555 l 555 555 l 555 278 l 416 278 l 416 0 l 139 0 z "},"8":{"ha":972,"x_min":0,"x_max":833,"o":"m 555 139 l 555 555 l 278 555 l 278 139 l 555 139 m 555 694 l 555 1111 l 278 1111 l 278 694 l 555 694 m 139 0 l 139 139 l 0 139 l 0 555 l 139 555 l 139 694 l 0 694 l 0 1111 l 139 1111 l 139 1250 l 694 1250 l 694 1111 l 833 1111 l 833 694 l 694 694 l 694 555 l 833 555 l 833 139 l 694 139 l 694 0 l 139 0 z "},"9":{"ha":972,"x_min":0,"x_max":833,"o":"m 555 694 l 555 1111 l 278 1111 l 278 694 l 555 694 m 139 0 l 139 139 l 0 139 l 0 416 l 278 416 l 278 139 l 555 139 l 555 555 l 139 555 l 139 694 l 0 694 l 0 1111 l 139 1111 l 139 1250 l 694 1250 l 694 1111 l 833 1111 l 833 139 l 694 139 l 694 0 l 139 0 z "}," ":{"ha":416,"x_min":0,"x_max":0,"o":""},"!":{"ha":416,"x_min":0,"x_max":278,"o":"m 0 0 l 0 139 l 278 139 l 278 0 l 0 0 m 0 278 l 0 1250 l 278 1250 l 278 278 l 0 278 z "},"\"":{"ha":833,"x_min":0,"x_max":694,"o":"m 139 694 l 139 833 l 0 833 l 0 1250 l 278 1250 l 278 694 l 139 694 m 416 694 l 416 1250 l 694 1250 l 694 833 l 555 833 l 555 694 l 416 694 z "},"#":{"ha":1111,"x_min":0,"x_max":972,"o":"m 555 416 l 555 833 l 416 833 l 416 416 l 555 416 m 139 0 l 139 278 l 0 278 l 0 416 l 139 416 l 139 833 l 0 833 l 0 972 l 139 972 l 139 1250 l 416 1250 l 416 972 l 555 972 l 555 1250 l 833 1250 l 833 972 l 972 972 l 972 833 l 833 833 l 833 416 l 972 416 l 972 278 l 833 278 l 833 0 l 555 0 l 555 278 l 416 278 l 416 0 l 139 0 z "},"$":{"ha":972,"x_min":0,"x_max":833,"o":"m 278 0 l 278 139 l 139 139 l 139 278 l 0 278 l 0 416 l 278 416 l 278 278 l 555 278 l 555 555 l 139 555 l 139 694 l 0 694 l 0 972 l 139 972 l 139 1111 l 278 1111 l 278 1250 l 555 1250 l 555 1111 l 694 1111 l 694 972 l 833 972 l 833 833 l 555 833 l 555 972 l 278 972 l 278 694 l 694 694 l 694 555 l 833 555 l 833 278 l 694 278 l 694 139 l 555 139 l 555 0 l 278 0 z "},"%":{"ha":972,"x_min":0,"x_max":833,"o":"m 555 0 l 555 278 l 833 278 l 833 0 l 555 0 m 0 972 l 0 1250 l 278 1250 l 278 972 l 0 972 m 0 0 l 0 278 l 139 278 l 139 555 l 278 555 l 278 833 l 416 833 l 416 1111 l 555 1111 l 555 1250 l 833 1250 l 833 1111 l 694 1111 l 694 833 l 555 833 l 555 555 l 416 555 l 416 278 l 278 278 l 278 0 l 0 0 z "},"&":{"ha":972,"x_min":0,"x_max":833,"o":"m 694 0 l 694 139 l 833 139 l 833 0 l 694 0 m 416 139 l 416 555 l 278 555 l 278 139 l 416 139 m 416 694 l 416 1111 l 278 1111 l 278 694 l 416 694 m 139 0 l 139 139 l 0 139 l 0 555 l 139 555 l 139 694 l 0 694 l 0 1111 l 139 1111 l 139 1250 l 555 1250 l 555 1111 l 694 1111 l 694 833 l 555 833 l 555 694 l 833 694 l 833 555 l 555 555 l 555 416 l 694 416 l 694 139 l 555 139 l 555 0 l 139 0 z "},"'":{"ha":416,"x_min":0,"x_max":278,"o":"m 0 694 l 0 833 l 139 833 l 139 694 l 0 694 m 139 833 l 139 972 l 0 972 l 0 1250 l 278 1250 l 278 833 l 139 833 z "},"(":{"ha":694,"x_min":0,"x_max":555,"o":"m 278 0 l 278 139 l 139 139 l 139 278 l 0 278 l 0 972 l 139 972 l 139 1111 l 278 1111 l 278 1250 l 555 1250 l 555 1111 l 416 1111 l 416 972 l 278 972 l 278 278 l 416 278 l 416 139 l 555 139 l 555 0 l 278 0 z "},")":{"ha":694,"x_min":0,"x_max":555,"o":"m 0 0 l 0 139 l 139 139 l 139 278 l 278 278 l 278 972 l 139 972 l 139 1111 l 0 1111 l 0 1250 l 278 1250 l 278 1111 l 416 1111 l 416 972 l 555 972 l 555 278 l 416 278 l 416 139 l 278 139 l 278 0 l 0 0 z "},"*":{"ha":833,"x_min":0,"x_max":694,"o":"m 0 555 l 0 694 l 139 694 l 139 972 l 0 972 l 0 1111 l 278 1111 l 278 1250 l 416 1250 l 416 1111 l 694 1111 l 694 972 l 555 972 l 555 694 l 694 694 l 694 555 l 416 555 l 416 694 l 278 694 l 278 555 l 0 555 z "},"+":{"ha":972,"x_min":0,"x_max":833,"o":"m 278 278 l 278 555 l 0 555 l 0 694 l 278 694 l 278 972 l 555 972 l 555 694 l 833 694 l 833 555 l 555 555 l 555 278 l 278 278 z "},",":{"ha":416,"x_min":0,"x_max":278,"o":"m 0 -139 l 0 0 l 139 0 l 139 -139 l 0 -139 m 139 0 l 139 139 l 0 139 l 0 416 l 278 416 l 278 0 l 139 0 z "},"-":{"ha":972,"x_min":0,"x_max":833,"o":"m 0 555 l 0 694 l 833 694 l 833 555 l 0 555 z "},".":{"ha":416,"x_min":0,"x_max":278,"o":"m 0 0 l 0 278 l 278 278 l 278 0 l 0 0 z "},"/":{"ha":972,"x_min":0,"x_max":833,"o":"m 0 0 l 0 278 l 139 278 l 139 555 l 278 555 l 278 833 l 416 833 l 416 1111 l 555 1111 l 555 1250 l 833 1250 l 833 1111 l 694 1111 l 694 833 l 555 833 l 555 555 l 416 555 l 416 278 l 278 278 l 278 0 l 0 0 z "},":":{"ha":416,"x_min":0,"x_max":278,"o":"m 0 0 l 0 278 l 278 278 l 278 0 l 0 0 m 0 694 l 0 972 l 278 972 l 278 694 l 0 694 z "},";":{"ha":416,"x_min":0,"x_max":278,"o":"m 0 -139 l 0 0 l 139 0 l 139 -139 l 0 -139 m 139 0 l 139 139 l 0 139 l 0 416 l 278 416 l 278 0 l 139 0 m 0 694 l 0 972 l 278 972 l 278 694 l 0 694 z "},"<":{"ha":833,"x_min":0,"x_max":694,"o":"m 416 139 l 416 278 l 278 278 l 278 416 l 139 416 l 139 555 l 0 555 l 0 694 l 139 694 l 139 833 l 278 833 l 278 972 l 416 972 l 416 1111 l 694 1111 l 694 972 l 555 972 l 555 833 l 416 833 l 416 694 l 278 694 l 278 555 l 416 555 l 416 416 l 555 416 l 555 278 l 694 278 l 694 139 l 416 139 z "},"=":{"ha":972,"x_min":0,"x_max":833,"o":"m 0 416 l 0 555 l 833 555 l 833 416 l 0 416 m 0 694 l 0 833 l 833 833 l 833 694 l 0 694 z "},">":{"ha":833,"x_min":0,"x_max":694,"o":"m 0 139 l 0 278 l 139 278 l 139 416 l 278 416 l 278 555 l 416 555 l 416 694 l 278 694 l 278 833 l 139 833 l 139 972 l 0 972 l 0 1111 l 278 1111 l 278 972 l 416 972 l 416 833 l 555 833 l 555 694 l 694 694 l 694 555 l 555 555 l 555 416 l 416 416 l 416 278 l 278 278 l 278 139 l 0 139 z "},"?":{"ha":972,"x_min":0,"x_max":833,"o":"m 139 0 l 139 139 l 416 139 l 416 0 l 139 0 m 139 278 l 139 555 l 278 555 l 278 694 l 555 694 l 555 1111 l 278 1111 l 278 972 l 0 972 l 0 1111 l 139 1111 l 139 1250 l 694 1250 l 694 1111 l 833 1111 l 833 694 l 694 694 l 694 555 l 416 555 l 416 278 l 139 278 z "},"@":{"ha":1111,"x_min":0,"x_max":972,"o":"m 139 0 l 139 139 l 0 139 l 0 1111 l 139 1111 l 139 1250 l 833 1250 l 833 1111 l 972 1111 l 972 555 l 833 555 l 833 416 l 416 416 l 416 555 l 694 555 l 694 1111 l 278 1111 l 278 139 l 694 139 l 694 278 l 972 278 l 972 139 l 833 139 l 833 0 l 139 0 z "},"A":{"ha":972,"x_min":0,"x_max":833,"o":"m 555 555 l 555 972 l 278 972 l 278 555 l 555 555 m 0 0 l 0 972 l 139 972 l 139 1111 l 278 1111 l 278 1250 l 555 1250 l 555 1111 l 694 1111 l 694 972 l 833 972 l 833 0 l 555 0 l 555 416 l 278 416 l 278 0 l 0 0 z "},"B":{"ha":972,"x_min":0,"x_max":833,"o":"m 555 139 l 555 555 l 278 555 l 278 139 l 555 139 m 555 694 l 555 1111 l 278 1111 l 278 694 l 555 694 m 0 0 l 0 1250 l 694 1250 l 694 1111 l 833 1111 l 833 694 l 694 694 l 694 555 l 833 555 l 833 139 l 694 139 l 694 0 l 0 0 z "},"C":{"ha":972,"x_min":0,"x_max":833,"o":"m 139 0 l 139 139 l 0 139 l 0 1111 l 139 1111 l 139 1250 l 694 1250 l 694 1111 l 833 1111 l 833 833 l 555 833 l 555 1111 l 278 1111 l 278 139 l 555 139 l 555 416 l 833 416 l 833 139 l 694 139 l 694 0 l 139 0 z "},"D":{"ha":972,"x_min":0,"x_max":833,"o":"m 555 139 l 555 1111 l 278 1111 l 278 139 l 555 139 m 0 0 l 0 1250 l 694 1250 l 694 1111 l 833 1111 l 833 139 l 694 139 l 694 0 l 0 0 z "},"E":{"ha":972,"x_min":0,"x_max":833,"o":"m 0 0 l 0 1250 l 833 1250 l 833 1111 l 278 1111 l 278 694 l 694 694 l 694 555 l 278 555 l 278 139 l 833 139 l 833 0 l 0 0 z "},"F":{"ha":972,"x_min":0,"x_max":833,"o":"m 0 0 l 0 1250 l 833 1250 l 833 1111 l 278 1111 l 278 694 l 694 694 l 694 555 l 278 555 l 278 0 l 0 0 z "},"G":{"ha":972,"x_min":0,"x_max":833,"o":"m 139 0 l 139 139 l 0 139 l 0 1111 l 139 1111 l 139 1250 l 694 1250 l 694 1111 l 833 1111 l 833 833 l 555 833 l 555 1111 l 278 1111 l 278 139 l 555 139 l 555 555 l 416 555 l 416 694 l 833 694 l 833 139 l 694 139 l 694 0 l 139 0 z "},"H":{"ha":972,"x_min":0,"x_max":833,"o":"m 0 0 l 0 1250 l 278 1250 l 278 694 l 555 694 l 555 1250 l 833 1250 l 833 0 l 555 0 l 555 555 l 278 555 l 278 0 l 0 0 z "},"I":{"ha":416,"x_min":0,"x_max":278,"o":"m 0 0 l 0 1250 l 278 1250 l 278 0 l 0 0 z "},"J":{"ha":972,"x_min":0,"x_max":833,"o":"m 139 0 l 139 139 l 0 139 l 0 416 l 278 416 l 278 139 l 555 139 l 555 1250 l 833 1250 l 833 139 l 694 139 l 694 0 l 139 0 z "},"K":{"ha":972,"x_min":0,"x_max":833,"o":"m 0 0 l 0 1250 l 278 1250 l 278 694 l 555 694 l 555 1250 l 833 1250 l 833 694 l 694 694 l 694 555 l 833 555 l 833 0 l 555 0 l 555 555 l 278 555 l 278 0 l 0 0 z "},"L":{"ha":972,"x_min":0,"x_max":833,"o":"m 0 0 l 0 1250 l 278 1250 l 278 139 l 833 139 l 833 0 l 0 0 z "},"M":{"ha":1111,"x_min":0,"x_max":972,"o":"m 0 0 l 0 1250 l 278 1250 l 278 1111 l 416 1111 l 416 972 l 555 972 l 555 1111 l 694 1111 l 694 1250 l 972 1250 l 972 0 l 694 0 l 694 833 l 555 833 l 555 694 l 416 694 l 416 833 l 278 833 l 278 0 l 0 0 z "},"N":{"ha":972,"x_min":0,"x_max":833,"o":"m 0 0 l 0 1250 l 278 1250 l 278 972 l 416 972 l 416 833 l 555 833 l 555 1250 l 833 1250 l 833 0 l 555 0 l 555 555 l 416 555 l 416 694 l 278 694 l 278 0 l 0 0 z "},"O":{"ha":972,"x_min":0,"x_max":833,"o":"m 555 139 l 555 1111 l 278 1111 l 278 139 l 555 139 m 139 0 l 139 139 l 0 139 l 0 1111 l 139 1111 l 139 1250 l 694 1250 l 694 1111 l 833 1111 l 833 139 l 694 139 l 694 0 l 139 0 z "},"P":{"ha":972,"x_min":0,"x_max":833,"o":"m 555 694 l 555 1111 l 278 1111 l 278 694 l 555 694 m 0 0 l 0 1250 l 694 1250 l 694 1111 l 833 1111 l 833 694 l 694 694 l 694 555 l 278 555 l 278 0 l 0 0 z "},"Q":{"ha":972,"x_min":0,"x_max":833,"o":"m 555 0 l 555 139 l 833 139 l 833 0 l 555 0 m 416 139 l 416 278 l 555 278 l 555 139 l 416 139 m 139 0 l 139 139 l 0 139 l 0 1111 l 139 1111 l 139 1250 l 694 1250 l 694 1111 l 833 1111 l 833 416 l 694 416 l 694 278 l 555 278 l 555 1111 l 278 1111 l 278 139 l 416 139 l 416 0 l 139 0 z "},"R":{"ha":972,"x_min":0,"x_max":833,"o":"m 555 694 l 555 1111 l 278 1111 l 278 694 l 555 694 m 0 0 l 0 1250 l 694 1250 l 694 1111 l 833 1111 l 833 694 l 694 694 l 694 555 l 833 555 l 833 0 l 555 0 l 555 555 l 278 555 l 278 0 l 0 0 z "},"S":{"ha":972,"x_min":0,"x_max":833,"o":"m 139 0 l 139 139 l 0 139 l 0 278 l 278 278 l 278 139 l 555 139 l 555 555 l 139 555 l 139 694 l 0 694 l 0 1111 l 139 1111 l 139 1250 l 694 1250 l 694 1111 l 833 1111 l 833 972 l 555 972 l 555 1111 l 278 1111 l 278 694 l 694 694 l 694 555 l 833 555 l 833 139 l 694 139 l 694 0 l 139 0 z "},"T":{"ha":972,"x_min":0,"x_max":833,"o":"m 278 0 l 278 1111 l 0 1111 l 0 1250 l 833 1250 l 833 1111 l 555 1111 l 555 0 l 278 0 z "},"U":{"ha":972,"x_min":0,"x_max":833,"o":"m 139 0 l 139 139 l 0 139 l 0 1250 l 278 1250 l 278 139 l 555 139 l 555 1250 l 833 1250 l 833 139 l 694 139 l 694 0 l 139 0 z "},"V":{"ha":972,"x_min":0,"x_max":833,"o":"m 278 0 l 278 139 l 139 139 l 139 278 l 0 278 l 0 1250 l 278 1250 l 278 278 l 416 278 l 416 139 l 555 139 l 555 0 l 278 0 m 555 139 l 555 1250 l 833 1250 l 833 278 l 694 278 l 694 139 l 555 139 z "},"W":{"ha":1111,"x_min":0,"x_max":972,"o":"m 0 0 l 0 1250 l 278 1250 l 278 416 l 416 416 l 416 555 l 555 555 l 555 416 l 694 416 l 694 1250 l 972 1250 l 972 0 l 694 0 l 694 139 l 555 139 l 555 278 l 416 278 l 416 139 l 278 139 l 278 0 l 0 0 z "},"X":{"ha":972,"x_min":0,"x_max":833,"o":"m 0 0 l 0 555 l 139 555 l 139 694 l 0 694 l 0 1250 l 278 1250 l 278 694 l 555 694 l 555 1250 l 833 1250 l 833 694 l 694 694 l 694 555 l 833 555 l 833 0 l 555 0 l 555 555 l 278 555 l 278 0 l 0 0 z "},"Y":{"ha":972,"x_min":0,"x_max":833,"o":"m 278 0 l 278 555 l 139 555 l 139 694 l 0 694 l 0 1250 l 278 1250 l 278 694 l 555 694 l 555 1250 l 833 1250 l 833 694 l 694 694 l 694 555 l 555 555 l 555 0 l 278 0 z "},"Z":{"ha":972,"x_min":0,"x_max":833,"o":"m 0 0 l 0 416 l 139 416 l 139 555 l 278 555 l 278 694 l 416 694 l 416 833 l 555 833 l 555 1111 l 0 1111 l 0 1250 l 833 1250 l 833 833 l 694 833 l 694 694 l 555 694 l 555 555 l 416 555 l 416 416 l 278 416 l 278 139 l 833 139 l 833 0 l 0 0 z "},"[":{"ha":555,"x_min":0,"x_max":416,"o":"m 0 0 l 0 1250 l 416 1250 l 416 1111 l 278 1111 l 278 139 l 416 139 l 416 0 l 0 0 z "},"\\":{"ha":972,"x_min":0,"x_max":833,"o":"m 555 0 l 555 278 l 416 278 l 416 555 l 278 555 l 278 833 l 139 833 l 139 1111 l 0 1111 l 0 1250 l 278 1250 l 278 1111 l 416 1111 l 416 833 l 555 833 l 555 555 l 694 555 l 694 278 l 833 278 l 833 0 l 555 0 z "},"]":{"ha":555,"x_min":0,"x_max":416,"o":"m 0 0 l 0 139 l 139 139 l 139 1111 l 0 1111 l 0 1250 l 416 1250 l 416 0 l 0 0 z "},"^":{"ha":972,"x_min":0,"x_max":833,"o":"m 0 694 l 0 972 l 139 972 l 139 1111 l 278 1111 l 278 1250 l 555 1250 l 555 1111 l 694 1111 l 694 972 l 833 972 l 833 694 l 555 694 l 555 972 l 278 972 l 278 694 l 0 694 z "},"_":{"ha":972,"x_min":0,"x_max":833,"o":"m 0 0 l 0 139 l 833 139 l 833 0 l 0 0 z "},"`":{"ha":555,"x_min":0,"x_max":416,"o":"m 139 972 l 139 1111 l 0 1111 l 0 1250 l 278 1250 l 278 1111 l 416 1111 l 416 972 l 139 972 z "},"a":{"ha":972,"x_min":0,"x_max":833,"o":"m 555 139 l 555 555 l 278 555 l 278 139 l 555 139 m 555 139 l 555 0 l 139 0 l 139 139 l 0 139 l 0 555 l 139 555 l 139 694 l 555 694 l 555 833 l 139 833 l 139 972 l 694 972 l 694 833 l 833 833 l 833 0 l 694 0 l 694 139 l 555 139 z "},"b":{"ha":972,"x_min":0,"x_max":833,"o":"m 278 139 l 555 139 l 555 833 l 278 833 l 278 139 m 278 139 l 139 139 l 139 0 l 0 0 l 0 1250 l 278 1250 l 278 972 l 694 972 l 694 833 l 833 833 l 833 139 l 694 139 l 694 0 l 278 0 l 278 139 z "},"c":{"ha":972,"x_min":0,"x_max":833,"o":"m 139 0 l 139 139 l 0 139 l 0 833 l 139 833 l 139 972 l 694 972 l 694 833 l 833 833 l 833 555 l 555 555 l 555 833 l 278 833 l 278 139 l 555 139 l 555 416 l 833 416 l 833 139 l 694 139 l 694 0 l 139 0 z "},"d":{"ha":972,"x_min":0,"x_max":833,"o":"m 555 139 l 555 833 l 278 833 l 278 139 l 555 139 m 555 139 l 555 0 l 139 0 l 139 139 l 0 139 l 0 833 l 139 833 l 139 972 l 555 972 l 555 1250 l 833 1250 l 833 0 l 694 0 l 694 139 l 555 139 z "},"e":{"ha":972,"x_min":0,"x_max":833,"o":"m 555 555 l 555 833 l 278 833 l 278 555 l 555 555 m 139 0 l 139 139 l 0 139 l 0 833 l 139 833 l 139 972 l 694 972 l 694 833 l 833 833 l 833 416 l 278 416 l 278 139 l 555 139 l 555 278 l 833 278 l 833 139 l 694 139 l 694 0 l 139 0 z "},"f":{"ha":972,"x_min":0,"x_max":833,"o":"m 0 0 l 0 972 l 139 972 l 139 1111 l 694 1111 l 694 972 l 833 972 l 833 694 l 555 694 l 555 972 l 278 972 l 278 555 l 555 555 l 555 416 l 278 416 l 278 0 l 0 0 z "},"g":{"ha":972,"x_min":0,"x_max":833,"o":"m 555 833 l 278 833 l 278 278 l 555 278 l 555 833 m 555 833 l 694 833 l 694 972 l 833 972 l 833 0 l 694 0 l 694 -139 l 139 -139 l 139 0 l 555 0 l 555 139 l 139 139 l 139 278 l 0 278 l 0 833 l 139 833 l 139 972 l 555 972 l 555 833 z "},"h":{"ha":972,"x_min":0,"x_max":833,"o":"m 0 0 l 0 1250 l 278 1250 l 278 972 l 694 972 l 694 833 l 833 833 l 833 0 l 555 0 l 555 833 l 278 833 l 278 0 l 0 0 z "},"i":{"ha":416,"x_min":0,"x_max":278,"o":"m 0 0 l 0 972 l 278 972 l 278 0 l 0 0 m 0 1111 l 0 1250 l 278 1250 l 278 1111 l 0 1111 z "},"j":{"ha":555,"x_min":0,"x_max":416,"o":"m 0 -139 l 0 0 l 139 0 l 139 972 l 416 972 l 416 0 l 278 0 l 278 -139 l 0 -139 m 139 1111 l 139 1250 l 416 1250 l 416 1111 l 139 1111 z "},"k":{"ha":972,"x_min":0,"x_max":833,"o":"m 0 0 l 0 1250 l 278 1250 l 278 555 l 555 555 l 555 972 l 833 972 l 833 555 l 694 555 l 694 416 l 833 416 l 833 0 l 555 0 l 555 416 l 278 416 l 278 0 l 0 0 z "},"l":{"ha":416,"x_min":0,"x_max":278,"o":"m 0 0 l 0 1250 l 278 1250 l 278 0 l 0 0 z "},"m":{"ha":1111,"x_min":0,"x_max":972,"o":"m 0 0 l 0 833 l 139 833 l 139 972 l 416 972 l 416 833 l 555 833 l 555 972 l 833 972 l 833 833 l 972 833 l 972 0 l 694 0 l 694 694 l 555 694 l 555 0 l 416 0 l 416 694 l 278 694 l 278 0 l 0 0 z "},"n":{"ha":972,"x_min":0,"x_max":833,"o":"m 0 0 l 0 972 l 694 972 l 694 833 l 833 833 l 833 0 l 555 0 l 555 833 l 278 833 l 278 0 l 0 0 z "},"o":{"ha":972,"x_min":0,"x_max":833,"o":"m 555 139 l 555 833 l 278 833 l 278 139 l 555 139 m 139 0 l 139 139 l 0 139 l 0 833 l 139 833 l 139 972 l 694 972 l 694 833 l 833 833 l 833 139 l 694 139 l 694 0 l 139 0 z "},"p":{"ha":972,"x_min":0,"x_max":833,"o":"m 278 833 l 278 278 l 555 278 l 555 833 l 278 833 m 278 833 l 278 972 l 694 972 l 694 833 l 833 833 l 833 278 l 694 278 l 694 139 l 278 139 l 278 -139 l 0 -139 l 0 972 l 139 972 l 139 833 l 278 833 z "},"q":{"ha":972,"x_min":0,"x_max":833,"o":"m 555 833 l 278 833 l 278 278 l 555 278 l 555 833 m 555 833 l 694 833 l 694 972 l 833 972 l 833 -139 l 555 -139 l 555 139 l 139 139 l 139 278 l 0 278 l 0 833 l 139 833 l 139 972 l 555 972 l 555 833 z "},"r":{"ha":972,"x_min":0,"x_max":833,"o":"m 0 0 l 0 972 l 139 972 l 139 833 l 278 833 l 278 0 l 0 0 m 555 555 l 555 833 l 278 833 l 278 972 l 694 972 l 694 833 l 833 833 l 833 555 l 555 555 z "},"s":{"ha":972,"x_min":0,"x_max":833,"o":"m 139 0 l 139 139 l 0 139 l 0 278 l 278 278 l 278 139 l 555 139 l 555 416 l 139 416 l 139 555 l 0 555 l 0 833 l 139 833 l 139 972 l 694 972 l 694 833 l 833 833 l 833 694 l 555 694 l 555 833 l 278 833 l 278 555 l 694 555 l 694 416 l 833 416 l 833 139 l 694 139 l 694 0 l 139 0 z "},"t":{"ha":972,"x_min":0,"x_max":833,"o":"m 278 0 l 278 139 l 139 139 l 139 694 l 0 694 l 0 833 l 139 833 l 139 1111 l 416 1111 l 416 833 l 833 833 l 833 694 l 416 694 l 416 139 l 694 139 l 694 0 l 278 0 z "},"u":{"ha":972,"x_min":0,"x_max":833,"o":"m 139 0 l 139 139 l 0 139 l 0 972 l 278 972 l 278 139 l 555 139 l 555 0 l 139 0 m 694 0 l 694 139 l 555 139 l 555 972 l 833 972 l 833 0 l 694 0 z "},"v":{"ha":972,"x_min":0,"x_max":833,"o":"m 278 0 l 278 139 l 139 139 l 139 278 l 0 278 l 0 972 l 278 972 l 278 278 l 416 278 l 416 139 l 555 139 l 555 0 l 278 0 m 555 139 l 555 972 l 833 972 l 833 278 l 694 278 l 694 139 l 555 139 z "},"w":{"ha":1111,"x_min":0,"x_max":972,"o":"m 139 0 l 139 139 l 0 139 l 0 972 l 278 972 l 278 278 l 416 278 l 416 694 l 555 694 l 555 278 l 694 278 l 694 972 l 972 972 l 972 139 l 833 139 l 833 0 l 555 0 l 555 139 l 416 139 l 416 0 l 139 0 z "},"x":{"ha":972,"x_min":0,"x_max":833,"o":"m 0 0 l 0 416 l 139 416 l 139 555 l 0 555 l 0 972 l 278 972 l 278 555 l 555 555 l 555 972 l 833 972 l 833 555 l 694 555 l 694 416 l 833 416 l 833 0 l 555 0 l 555 416 l 278 416 l 278 0 l 0 0 z "},"y":{"ha":972,"x_min":0,"x_max":833,"o":"m 139 -139 l 139 0 l 555 0 l 555 139 l 139 139 l 139 278 l 0 278 l 0 972 l 278 972 l 278 278 l 555 278 l 555 972 l 833 972 l 833 0 l 694 0 l 694 -139 l 139 -139 z "},"z":{"ha":972,"x_min":0,"x_max":833,"o":"m 0 0 l 0 278 l 139 278 l 139 416 l 278 416 l 278 555 l 416 555 l 416 694 l 555 694 l 555 833 l 0 833 l 0 972 l 833 972 l 833 694 l 694 694 l 694 555 l 555 555 l 555 416 l 416 416 l 416 278 l 278 278 l 278 139 l 833 139 l 833 0 l 0 0 z "},"{":{"ha":694,"x_min":0,"x_max":555,"o":"m 278 0 l 278 139 l 139 139 l 139 416 l 278 416 l 278 555 l 0 555 l 0 694 l 278 694 l 278 833 l 139 833 l 139 1111 l 278 1111 l 278 1250 l 555 1250 l 555 1111 l 416 1111 l 416 833 l 555 833 l 555 694 l 416 694 l 416 555 l 555 555 l 555 416 l 416 416 l 416 139 l 555 139 l 555 0 l 278 0 z "},"|":{"ha":416,"x_min":0,"x_max":278,"o":"m 0 0 l 0 1250 l 278 1250 l 278 0 l 0 0 z "},"}":{"ha":694,"x_min":0,"x_max":555,"o":"m 0 0 l 0 139 l 139 139 l 139 416 l 0 416 l 0 555 l 139 555 l 139 694 l 0 694 l 0 833 l 139 833 l 139 1111 l 0 1111 l 0 1250 l 278 1250 l 278 1111 l 416 1111 l 416 833 l 278 833 l 278 694 l 555 694 l 555 555 l 278 555 l 278 416 l 416 416 l 416 139 l 278 139 l 278 0 l 0 0 z "},"~":{"ha":972,"x_min":0,"x_max":833,"o":"m 0 416 l 0 694 l 139 694 l 139 833 l 416 833 l 416 694 l 555 694 l 555 833 l 833 833 l 833 555 l 694 555 l 694 416 l 416 416 l 416 555 l 278 555 l 278 416 l 0 416 z "},"¡":{"ha":416,"x_min":0,"x_max":278,"o":"m 0 -139 l 0 833 l 278 833 l 278 -139 l 0 -139 m 0 972 l 0 1111 l 278 1111 l 278 972 l 0 972 z "},"¢":{"ha":972,"x_min":0,"x_max":833,"o":"m 278 0 l 278 139 l 139 139 l 139 278 l 0 278 l 0 972 l 139 972 l 139 1111 l 278 1111 l 278 1250 l 555 1250 l 555 1111 l 694 1111 l 694 972 l 833 972 l 833 694 l 555 694 l 555 972 l 278 972 l 278 278 l 555 278 l 555 555 l 833 555 l 833 278 l 694 278 l 694 139 l 555 139 l 555 0 l 278 0 z "},"£":{"ha":972,"x_min":0,"x_max":833,"o":"m 139 0 l 139 555 l 0 555 l 0 694 l 139 694 l 139 1111 l 278 1111 l 278 1250 l 694 1250 l 694 1111 l 833 1111 l 833 833 l 555 833 l 555 1111 l 416 1111 l 416 694 l 694 694 l 694 555 l 416 555 l 416 139 l 555 139 l 555 278 l 833 278 l 833 0 l 139 0 z "},"¤":{"ha":972,"x_min":0,"x_max":833,"o":"m 555 416 l 555 694 l 278 694 l 278 416 l 555 416 m 0 139 l 0 416 l 139 416 l 139 694 l 0 694 l 0 972 l 278 972 l 278 833 l 555 833 l 555 972 l 833 972 l 833 694 l 694 694 l 694 416 l 833 416 l 833 139 l 555 139 l 555 278 l 278 278 l 278 139 l 0 139 z "},"¥":{"ha":972,"x_min":0,"x_max":833,"o":"m 278 0 l 278 139 l 0 139 l 0 278 l 278 278 l 278 416 l 0 416 l 0 555 l 278 555 l 278 694 l 139 694 l 139 833 l 0 833 l 0 1250 l 278 1250 l 278 833 l 555 833 l 555 1250 l 833 1250 l 833 833 l 694 833 l 694 694 l 555 694 l 555 555 l 833 555 l 833 416 l 555 416 l 555 278 l 833 278 l 833 139 l 555 139 l 555 0 l 278 0 z "},"¦":{"ha":416,"x_min":0,"x_max":278,"o":"m 0 0 l 0 555 l 278 555 l 278 0 l 0 0 m 0 694 l 0 1250 l 278 1250 l 278 694 l 0 694 z "},"§":{"ha":972,"x_min":0,"x_max":833,"o":"m 555 555 l 555 694 l 278 694 l 278 555 l 555 555 m 139 0 l 139 139 l 0 139 l 0 278 l 278 278 l 278 139 l 555 139 l 555 416 l 139 416 l 139 694 l 0 694 l 0 1111 l 139 1111 l 139 1250 l 694 1250 l 694 1111 l 833 1111 l 833 972 l 555 972 l 555 1111 l 278 1111 l 278 833 l 694 833 l 694 555 l 833 555 l 833 139 l 694 139 l 694 0 l 139 0 z "},"¨":{"ha":972,"x_min":0,"x_max":833,"o":"m 0 1111 l 0 1250 l 278 1250 l 278 1111 l 0 1111 m 555 1111 l 555 1250 l 833 1250 l 833 1111 l 555 1111 z "},"©":{"ha":1111,"x_min":0,"x_max":972,"o":"m 278 278 l 278 972 l 694 972 l 694 694 l 555 694 l 555 833 l 416 833 l 416 416 l 555 416 l 555 555 l 694 555 l 694 278 l 278 278 m 694 139 l 694 278 l 833 278 l 833 972 l 694 972 l 694 1111 l 278 1111 l 278 972 l 139 972 l 139 278 l 278 278 l 278 139 l 694 139 m 139 0 l 139 139 l 0 139 l 0 1111 l 139 1111 l 139 1250 l 833 1250 l 833 1111 l 972 1111 l 972 139 l 833 139 l 833 0 l 139 0 z "},"ª":{"ha":972,"x_min":0,"x_max":833,"o":"m 555 416 l 555 833 l 278 833 l 278 416 l 555 416 m 555 416 l 555 278 l 139 278 l 139 416 l 0 416 l 0 833 l 139 833 l 139 972 l 555 972 l 555 1111 l 139 1111 l 139 1250 l 694 1250 l 694 1111 l 833 1111 l 833 278 l 694 278 l 694 416 l 555 416 z "},"«":{"ha":1111,"x_min":0,"x_max":972,"o":"m 278 278 l 278 416 l 139 416 l 139 555 l 0 555 l 0 694 l 139 694 l 139 833 l 278 833 l 278 972 l 555 972 l 555 833 l 416 833 l 416 694 l 278 694 l 278 555 l 416 555 l 416 416 l 555 416 l 555 278 l 278 278 m 694 278 l 694 416 l 555 416 l 555 555 l 416 555 l 416 694 l 555 694 l 555 833 l 694 833 l 694 972 l 972 972 l 972 833 l 833 833 l 833 694 l 694 694 l 694 555 l 833 555 l 833 416 l 972 416 l 972 278 l 694 278 z "},"¬":{"ha":972,"x_min":0,"x_max":833,"o":"m 555 278 l 555 555 l 0 555 l 0 694 l 833 694 l 833 278 l 555 278 z "},"­":{"ha":972,"x_min":0,"x_max":833,"o":"m 0 555 l 0 694 l 833 694 l 833 555 l 0 555 z "},"®":{"ha":1111,"x_min":0,"x_max":972,"o":"m 555 278 l 555 555 l 694 555 l 694 278 l 555 278 m 278 278 l 278 972 l 694 972 l 694 694 l 555 695 l 555 833 l 416 833 l 416 694 l 555 694 l 555 555 l 416 555 l 416 278 l 278 278 m 694 139 l 694 278 l 833 278 l 833 972 l 694 972 l 694 1111 l 278 1111 l 278 972 l 139 972 l 139 278 l 278 278 l 278 139 l 694 139 m 139 0 l 139 139 l 0 139 l 0 1111 l 139 1111 l 139 1250 l 833 1250 l 833 1111 l 972 1111 l 972 139 l 833 139 l 833 0 l 139 0 z "},"¯":{"ha":972,"x_min":0,"x_max":833,"o":"m 0 1111 l 0 1250 l 833 1250 l 833 1111 l 0 1111 z "},"°":{"ha":833,"x_min":0,"x_max":694,"o":"m 416 694 l 416 1111 l 278 1111 l 278 694 l 416 694 m 139 555 l 139 694 l 0 694 l 0 1111 l 139 1111 l 139 1250 l 555 1250 l 555 1111 l 694 1111 l 694 694 l 555 694 l 555 555 l 139 555 z "},"±":{"ha":972,"x_min":0,"x_max":833,"o":"m 0 0 l 0 139 l 833 139 l 833 0 l 0 0 m 278 278 l 278 555 l 0 555 l 0 694 l 278 694 l 278 972 l 555 972 l 555 694 l 833 694 l 833 555 l 555 555 l 555 278 l 278 278 z "},"²":{"ha":972,"x_min":0,"x_max":833,"o":"m 0 278 l 0 694 l 139 694 l 139 833 l 555 833 l 555 1111 l 278 1111 l 278 972 l 0 972 l 0 1111 l 139 1111 l 139 1250 l 694 1250 l 694 1111 l 833 1111 l 833 833 l 694 833 l 694 694 l 278 694 l 278 416 l 833 416 l 833 278 l 0 278 z "},"³":{"ha":972,"x_min":0,"x_max":833,"o":"m 139 278 l 139 416 l 0 416 l 0 555 l 278 555 l 278 416 l 555 416 l 555 694 l 139 694 l 139 833 l 555 833 l 555 1111 l 278 1111 l 278 972 l 0 972 l 0 1111 l 139 1111 l 139 1250 l 694 1250 l 694 1111 l 833 1111 l 833 833 l 694 833 l 694 694 l 833 694 l 833 416 l 694 416 l 694 278 l 139 278 z "},"´":{"ha":555,"x_min":0,"x_max":416,"o":"m 0 972 l 0 1111 l 139 1111 l 139 1250 l 416 1250 l 416 1111 l 278 1111 l 278 972 l 0 972 z "},"µ":{"ha":972,"x_min":0,"x_max":833,"o":"m 0 -139 l 0 972 l 278 972 l 278 139 l 555 139 l 555 0 l 278 0 l 278 -139 l 0 -139 m 694 0 l 694 139 l 555 139 l 555 972 l 833 972 l 833 0 l 694 0 z "},"¶":{"ha":972,"x_min":0,"x_max":833,"o":"m 278 0 l 278 555 l 139 555 l 139 694 l 0 694 l 0 1111 l 139 1111 l 139 1250 l 833 1250 l 833 1111 l 694 1111 l 694 0 l 555 0 l 555 1111 l 416 1111 l 416 0 l 278 0 z "},"·":{"ha":416,"x_min":0,"x_max":278,"o":"m 0 555 l 0 833 l 278 833 l 278 555 l 0 555 z "},"¸":{"ha":555,"x_min":0,"x_max":416,"o":"m 0 -139 l 0 0 l 139 0 l 139 139 l 416 139 l 416 0 l 278 0 l 278 -139 l 0 -139 z "},"¹":{"ha":972,"x_min":0,"x_max":833,"o":"m 0 278 l 0 416 l 278 416 l 278 833 l 0 833 l 0 972 l 139 972 l 139 1111 l 278 1111 l 278 1250 l 555 1250 l 555 416 l 833 416 l 833 278 l 0 278 z "},"º":{"ha":972,"x_min":0,"x_max":833,"o":"m 555 416 l 555 1111 l 278 1111 l 278 416 l 555 416 m 139 278 l 139 416 l 0 416 l 0 1111 l 139 1111 l 139 1250 l 694 1250 l 694 1111 l 833 1111 l 833 416 l 694 416 l 694 278 l 139 278 z "},"»":{"ha":1111,"x_min":0,"x_max":972,"o":"m 0 278 l 0 416 l 139 416 l 139 555 l 278 555 l 278 694 l 139 694 l 139 833 l 0 833 l 0 972 l 278 972 l 278 833 l 416 833 l 416 694 l 555 694 l 555 555 l 416 555 l 416 416 l 278 416 l 278 278 l 0 278 m 416 278 l 416 416 l 555 416 l 555 555 l 694 555 l 694 694 l 555 694 l 555 833 l 416 833 l 416 972 l 694 972 l 694 833 l 833 833 l 833 694 l 972 694 l 972 555 l 833 555 l 833 416 l 694 416 l 694 278 l 416 278 z "},"¼":{"ha":1111,"x_min":0,"x_max":972,"o":"m 833 0 l 833 278 l 555 278 l 555 694 l 694 694 l 694 416 l 833 416 l 833 694 l 972 694 l 972 0 l 833 0 m 0 555 l 0 694 l 139 694 l 139 1111 l 0 1111 l 0 1250 l 278 1250 l 278 694 l 416 694 l 416 555 l 0 555 z "},"½":{"ha":1111,"x_min":0,"x_max":972,"o":"m 555 0 l 555 416 l 833 416 l 833 555 l 555 555 l 555 694 l 972 694 l 972 278 l 694 278 l 694 139 l 972 139 l 972 0 l 555 0 m 0 555 l 0 694 l 139 694 l 139 1111 l 0 1111 l 0 1250 l 278 1250 l 278 694 l 416 694 l 416 555 l 0 555 z "},"¾":{"ha":1111,"x_min":0,"x_max":972,"o":"m 833 0 l 833 278 l 555 278 l 555 694 l 694 694 l 694 416 l 833 416 l 833 694 l 972 694 l 972 0 l 833 0 m 0 555 l 0 694 l 278 694 l 278 833 l 0 833 l 0 972 l 278 972 l 278 1111 l 0 1111 l 0 1250 l 416 1250 l 416 555 l 0 555 z "},"¿":{"ha":972,"x_min":0,"x_max":833,"o":"m 139 -139 l 139 0 l 0 0 l 0 416 l 139 416 l 139 555 l 416 555 l 416 833 l 694 833 l 694 555 l 555 555 l 555 416 l 278 416 l 278 0 l 555 0 l 555 139 l 833 139 l 833 0 l 694 0 l 694 -139 l 139 -139 m 416 972 l 416 1111 l 694 1111 l 694 972 l 416 972 z "},"À":{"ha":972,"x_min":0,"x_max":833,"o":"m 555 416 l 555 694 l 278 694 l 278 416 l 555 416 m 0 0 l 0 694 l 139 694 l 139 833 l 694 833 l 694 694 l 833 694 l 833 0 l 555 0 l 555 278 l 278 278 l 278 0 l 0 0 m 278 972 l 278 1111 l 139 1111 l 139 1250 l 416 1250 l 416 1111 l 555 1111 l 555 972 l 278 972 z "},"Á":{"ha":972,"x_min":0,"x_max":833,"o":"m 555 416 l 555 694 l 278 694 l 278 416 l 555 416 m 0 0 l 0 694 l 139 694 l 139 833 l 694 833 l 694 694 l 833 694 l 833 0 l 555 0 l 555 278 l 278 278 l 278 0 l 0 0 m 278 972 l 278 1111 l 416 1111 l 416 1250 l 694 1250 l 694 1111 l 555 1111 l 555 972 l 278 972 z "},"Â":{"ha":972,"x_min":0,"x_max":833,"o":"m 555 416 l 555 694 l 278 694 l 278 416 l 555 416 m 0 0 l 0 694 l 139 694 l 139 833 l 694 833 l 694 694 l 833 694 l 833 0 l 555 0 l 555 278 l 278 278 l 278 0 l 0 0 m 555 972 l 555 1111 l 694 1111 l 694 972 l 555 972 m 139 972 l 139 1111 l 278 1111 l 278 1250 l 555 1250 l 555 1111 l 416 1111 l 416 972 l 139 972 z "},"Ã":{"ha":972,"x_min":0,"x_max":833,"o":"m 555 416 l 555 694 l 278 694 l 278 416 l 555 416 m 0 0 l 0 694 l 139 694 l 139 833 l 694 833 l 694 694 l 833 694 l 833 0 l 555 0 l 555 278 l 278 278 l 278 0 l 0 0 m 0 972 l 0 1111 l 139 1111 l 139 1250 l 555 1250 l 555 1111 l 694 1111 l 694 972 l 416 972 l 416 1111 l 278 1111 l 278 972 l 0 972 m 694 1111 l 694 1250 l 833 1250 l 833 1111 l 694 1111 z "},"Ä":{"ha":972,"x_min":0,"x_max":833,"o":"m 555 416 l 555 694 l 278 694 l 278 416 l 555 416 m 0 0 l 0 694 l 139 694 l 139 833 l 278 833 l 278 972 l 555 972 l 555 833 l 694 833 l 694 694 l 833 694 l 833 0 l 555 0 l 555 278 l 278 278 l 278 0 l 0 0 m 0 1111 l 0 1250 l 278 1250 l 278 1111 l 0 1111 m 555 1111 l 555 1250 l 833 1250 l 833 1111 l 555 1111 z "},"Å":{"ha":972,"x_min":0,"x_max":833,"o":"m 555 416 l 555 694 l 278 694 l 278 416 l 555 416 m 0 0 l 0 694 l 139 694 l 139 833 l 278 833 l 278 972 l 555 972 l 555 833 l 694 833 l 694 694 l 833 694 l 833 0 l 555 0 l 555 278 l 278 278 l 278 0 l 0 0 m 139 972 l 139 1111 l 278 1111 l 278 972 l 139 972 m 555 972 l 555 1111 l 694 1111 l 694 972 l 555 972 m 278 1111 l 278 1250 l 555 1250 l 555 1111 l 278 1111 z "},"Æ":{"ha":1111,"x_min":0,"x_max":972,"o":"m 416 694 l 416 972 l 278 972 l 278 694 l 416 694 m 0 0 l 0 972 l 139 972 l 139 1111 l 278 1111 l 278 1250 l 972 1250 l 972 1111 l 694 1111 l 694 694 l 972 694 l 972 555 l 694 555 l 694 139 l 972 139 l 972 0 l 416 0 l 416 555 l 278 555 l 278 0 l 0 0 z "},"Ç":{"ha":972,"x_min":0,"x_max":833,"o":"m 139 -139 l 139 0 l 278 0 l 278 139 l 139 139 l 139 278 l 0 278 l 0 1111 l 139 1111 l 139 1250 l 694 1250 l 694 1111 l 833 1111 l 833 833 l 555 833 l 555 1111 l 278 1111 l 278 278 l 555 278 l 555 555 l 833 555 l 833 278 l 694 278 l 694 139 l 555 139 l 555 0 l 416 0 l 416 -139 l 139 -139 z "},"È":{"ha":972,"x_min":0,"x_max":833,"o":"m 0 0 l 0 833 l 833 833 l 833 694 l 278 694 l 278 555 l 694 555 l 694 416 l 278 416 l 278 139 l 833 139 l 833 0 l 0 0 m 278 972 l 278 1111 l 139 1111 l 139 1250 l 416 1250 l 416 1111 l 555 1111 l 555 972 l 278 972 z "},"É":{"ha":972,"x_min":0,"x_max":833,"o":"m 0 0 l 0 833 l 833 833 l 833 694 l 278 694 l 278 555 l 694 555 l 694 416 l 278 416 l 278 139 l 833 139 l 833 0 l 0 0 m 278 972 l 278 1111 l 416 1111 l 416 1250 l 694 1250 l 694 1111 l 555 1111 l 555 972 l 278 972 z "},"Ê":{"ha":972,"x_min":0,"x_max":833,"o":"m 0 0 l 0 833 l 833 833 l 833 694 l 278 694 l 278 555 l 694 555 l 694 416 l 278 416 l 278 139 l 833 139 l 833 0 l 0 0 m 555 972 l 555 1111 l 694 1111 l 694 972 l 555 972 m 139 972 l 139 1111 l 278 1111 l 278 1250 l 555 1250 l 555 1111 l 416 1111 l 416 972 l 139 972 z "},"Ë":{"ha":972,"x_min":0,"x_max":833,"o":"m 0 0 l 0 972 l 833 972 l 833 833 l 278 833 l 278 555 l 694 555 l 694 416 l 278 416 l 278 139 l 833 139 l 833 0 l 0 0 m 0 1111 l 0 1250 l 278 1250 l 278 1111 l 0 1111 m 555 1111 l 555 1250 l 833 1250 l 833 1111 l 555 1111 z "},"Ì":{"ha":555,"x_min":0,"x_max":416,"o":"m 139 0 l 139 833 l 416 833 l 416 0 l 139 0 m 139 972 l 139 1111 l 0 1111 l 0 1250 l 278 1250 l 278 1111 l 416 1111 l 416 972 l 139 972 z "},"Í":{"ha":555,"x_min":0,"x_max":416,"o":"m 0 0 l 0 833 l 278 833 l 278 0 l 0 0 m 0 972 l 0 1111 l 139 1111 l 139 1250 l 416 1250 l 416 1111 l 278 1111 l 278 972 l 0 972 z "},"Î":{"ha":694,"x_min":0,"x_max":555,"o":"m 139 0 l 139 833 l 416 833 l 416 0 l 139 0 m 416 972 l 416 1111 l 555 1111 l 555 972 l 416 972 m 0 972 l 0 1111 l 139 1111 l 139 1250 l 416 1250 l 416 1111 l 278 1111 l 278 972 l 0 972 z "},"Ï":{"ha":833,"x_min":0,"x_max":833,"o":"m 278 0 l 278 972 l 555 972 l 555 0 l 278 0 m 0 1111 l 0 1250 l 278 1250 l 278 1111 l 0 1111 m 555 1111 l 555 1250 l 833 1250 l 833 1111 l 555 1111 z "},"Ð":{"ha":1111,"x_min":0,"x_max":972,"o":"m 694 139 l 694 1111 l 416 1111 l 416 694 l 555 694 l 555 555 l 416 555 l 416 139 l 694 139 m 139 0 l 139 555 l 0 555 l 0 694 l 139 694 l 139 1250 l 833 1250 l 833 1111 l 972 1111 l 972 139 l 833 139 l 833 0 l 139 0 z "},"Ñ":{"ha":972,"x_min":0,"x_max":833,"o":"m 0 0 l 0 833 l 278 833 l 278 694 l 416 694 l 416 555 l 555 555 l 555 833 l 833 833 l 833 0 l 555 0 l 555 278 l 416 278 l 416 416 l 278 416 l 278 0 l 0 0 m 0 972 l 0 1111 l 139 1111 l 139 1250 l 555 1250 l 555 1111 l 694 1111 l 694 972 l 416 972 l 416 1111 l 278 1111 l 278 972 l 0 972 m 694 1111 l 694 1250 l 833 1250 l 833 1111 l 694 1111 z "},"Ò":{"ha":972,"x_min":0,"x_max":833,"o":"m 555 139 l 555 694 l 278 694 l 278 139 l 555 139 m 139 0 l 139 139 l 0 139 l 0 694 l 139 694 l 139 833 l 694 833 l 694 694 l 833 694 l 833 139 l 694 139 l 694 0 l 139 0 m 278 972 l 278 1111 l 139 1111 l 139 1250 l 416 1250 l 416 1111 l 555 1111 l 555 972 l 278 972 z "},"Ó":{"ha":972,"x_min":0,"x_max":833,"o":"m 555 139 l 555 694 l 278 694 l 278 139 l 555 139 m 139 0 l 139 139 l 0 139 l 0 694 l 139 694 l 139 833 l 694 833 l 694 694 l 833 694 l 833 139 l 694 139 l 694 0 l 139 0 m 278 972 l 278 1111 l 416 1111 l 416 1250 l 694 1250 l 694 1111 l 555 1111 l 555 972 l 278 972 z "},"Ô":{"ha":972,"x_min":0,"x_max":833,"o":"m 555 139 l 555 694 l 278 694 l 278 139 l 555 139 m 139 0 l 139 139 l 0 139 l 0 694 l 139 694 l 139 833 l 694 833 l 694 694 l 833 694 l 833 139 l 694 139 l 694 0 l 139 0 m 555 972 l 555 1111 l 694 1111 l 694 972 l 555 972 m 139 972 l 139 1111 l 278 1111 l 278 1250 l 555 1250 l 555 1111 l 416 1111 l 416 972 l 139 972 z "},"Õ":{"ha":972,"x_min":0,"x_max":833,"o":"m 555 139 l 555 694 l 278 694 l 278 139 l 555 139 m 139 0 l 139 139 l 0 139 l 0 694 l 139 694 l 139 833 l 694 833 l 694 694 l 833 694 l 833 139 l 694 139 l 694 0 l 139 0 m 0 972 l 0 1111 l 139 1111 l 139 1250 l 555 1250 l 555 1111 l 694 1111 l 694 972 l 416 972 l 416 1111 l 278 1111 l 278 972 l 0 972 m 694 1111 l 694 1250 l 833 1250 l 833 1111 l 694 1111 z "},"Ö":{"ha":972,"x_min":0,"x_max":833,"o":"m 555 139 l 555 833 l 278 833 l 278 139 l 555 139 m 139 0 l 139 139 l 0 139 l 0 833 l 139 833 l 139 972 l 694 972 l 694 833 l 833 833 l 833 139 l 694 139 l 694 0 l 139 0 m 0 1111 l 0 1250 l 278 1250 l 278 1111 l 0 1111 m 555 1111 l 555 1250 l 833 1250 l 833 1111 l 555 1111 z "},"×":{"ha":972,"x_min":0,"x_max":833,"o":"m 0 278 l 0 416 l 139 416 l 139 555 l 278 555 l 278 694 l 139 694 l 139 833 l 0 833 l 0 972 l 278 972 l 278 833 l 555 833 l 555 972 l 833 972 l 833 833 l 694 833 l 694 694 l 555 694 l 555 555 l 694 555 l 694 416 l 833 416 l 833 278 l 555 278 l 555 416 l 278 416 l 278 278 l 0 278 z "},"Ø":{"ha":972,"x_min":0,"x_max":833,"o":"m 555 1111 l 278 1111 l 278 694 l 416 694 l 416 833 l 555 833 l 555 1111 m 278 139 l 555 139 l 555 555 l 416 555 l 416 416 l 278 416 l 278 139 m 555 1111 l 694 1111 l 694 972 l 833 972 l 833 139 l 694 139 l 694 0 l 278 0 l 278 139 l 139 139 l 139 278 l 0 278 l 0 1111 l 139 1111 l 139 1250 l 555 1250 l 555 1111 m 694 1111 l 694 1250 l 833 1250 l 833 1111 l 694 1111 m 0 0 l 0 139 l 139 139 l 139 0 l 0 0 z "},"Ù":{"ha":972,"x_min":0,"x_max":833,"o":"m 139 0 l 139 139 l 0 139 l 0 833 l 278 833 l 278 139 l 555 139 l 555 833 l 833 833 l 833 139 l 694 139 l 694 0 l 139 0 m 278 972 l 278 1111 l 139 1111 l 139 1250 l 416 1250 l 416 1111 l 555 1111 l 555 972 l 278 972 z "},"Ú":{"ha":972,"x_min":0,"x_max":833,"o":"m 139 0 l 139 139 l 0 139 l 0 833 l 278 833 l 278 139 l 555 139 l 555 833 l 833 833 l 833 139 l 694 139 l 694 0 l 139 0 m 278 972 l 278 1111 l 416 1111 l 416 1250 l 694 1250 l 694 1111 l 555 1111 l 555 972 l 278 972 z "},"Û":{"ha":972,"x_min":0,"x_max":833,"o":"m 139 0 l 139 139 l 0 139 l 0 833 l 278 833 l 278 139 l 555 139 l 555 833 l 833 833 l 833 139 l 694 139 l 694 0 l 139 0 m 555 972 l 555 1111 l 694 1111 l 694 972 l 555 972 m 139 972 l 139 1111 l 278 1111 l 278 1250 l 555 1250 l 555 1111 l 416 1111 l 416 972 l 139 972 z "},"Ü":{"ha":972,"x_min":0,"x_max":833,"o":"m 139 0 l 139 139 l 0 139 l 0 972 l 278 972 l 278 139 l 555 139 l 555 972 l 833 972 l 833 139 l 694 139 l 694 0 l 139 0 m 0 1111 l 0 1250 l 278 1250 l 278 1111 l 0 1111 m 555 1111 l 555 1250 l 833 1250 l 833 1111 l 555 1111 z "},"Ý":{"ha":972,"x_min":0,"x_max":833,"o":"m 278 0 l 278 278 l 139 278 l 139 416 l 0 416 l 0 833 l 278 833 l 278 416 l 555 416 l 555 833 l 833 833 l 833 416 l 694 416 l 694 278 l 555 278 l 555 0 l 278 0 m 278 972 l 278 1111 l 416 1111 l 416 1250 l 694 1250 l 694 1111 l 555 1111 l 555 972 l 278 972 z "},"Þ":{"ha":972,"x_min":0,"x_max":833,"o":"m 555 278 l 555 972 l 278 972 l 278 278 l 555 278 m 0 0 l 0 1250 l 278 1250 l 278 1111 l 694 1111 l 694 972 l 833 972 l 833 278 l 694 278 l 694 139 l 278 139 l 278 0 l 0 0 z "},"ß":{"ha":972,"x_min":0,"x_max":833,"o":"m 0 0 l 0 1111 l 139 1111 l 139 1250 l 694 1250 l 694 1111 l 833 1111 l 833 694 l 694 694 l 694 555 l 833 555 l 833 139 l 694 139 l 694 0 l 416 0 l 416 139 l 555 139 l 555 555 l 416 555 l 416 694 l 555 694 l 555 1111 l 278 1111 l 278 0 l 0 0 z "},"à":{"ha":972,"x_min":0,"x_max":833,"o":"m 555 139 l 555 416 l 278 416 l 278 139 l 555 139 m 555 139 l 555 0 l 139 0 l 139 139 l 0 139 l 0 416 l 139 416 l 139 555 l 555 555 l 555 694 l 139 694 l 139 833 l 694 833 l 694 694 l 833 694 l 833 0 l 694 0 l 694 139 l 555 139 m 278 972 l 278 1111 l 139 1111 l 139 1250 l 416 1250 l 416 1111 l 555 1111 l 555 972 l 278 972 z "},"á":{"ha":972,"x_min":0,"x_max":833,"o":"m 555 139 l 555 416 l 278 416 l 278 139 l 555 139 m 555 139 l 555 0 l 139 0 l 139 139 l 0 139 l 0 416 l 139 416 l 139 555 l 555 555 l 555 694 l 139 694 l 139 833 l 694 833 l 694 694 l 833 694 l 833 0 l 694 0 l 694 139 l 555 139 m 278 972 l 278 1111 l 416 1111 l 416 1250 l 694 1250 l 694 1111 l 555 1111 l 555 972 l 278 972 z "},"â":{"ha":972,"x_min":0,"x_max":833,"o":"m 555 139 l 555 416 l 278 416 l 278 139 l 555 139 m 555 139 l 555 0 l 139 0 l 139 139 l 0 139 l 0 416 l 139 416 l 139 555 l 555 555 l 555 694 l 139 694 l 139 833 l 694 833 l 694 694 l 833 694 l 833 0 l 694 0 l 694 139 l 555 139 m 139 972 l 139 1111 l 278 1111 l 278 1250 l 555 1250 l 555 1111 l 416 1111 l 416 972 l 139 972 m 555 972 l 555 1111 l 694 1111 l 694 972 l 555 972 z "},"ã":{"ha":972,"x_min":0,"x_max":833,"o":"m 555 139 l 555 416 l 278 416 l 278 139 l 555 139 m 555 139 l 555 0 l 139 0 l 139 139 l 0 139 l 0 416 l 139 416 l 139 555 l 555 555 l 555 694 l 139 694 l 139 833 l 694 833 l 694 694 l 833 694 l 833 0 l 694 0 l 694 139 l 555 139 m 694 1111 l 694 1250 l 833 1250 l 833 1111 l 694 1111 m 0 972 l 0 1111 l 139 1111 l 139 1250 l 555 1250 l 555 1111 l 694 1111 l 694 972 l 416 972 l 416 1111 l 278 1111 l 278 972 l 0 972 z "},"ä":{"ha":972,"x_min":0,"x_max":833,"o":"m 555 139 l 555 555 l 278 555 l 278 139 l 555 139 m 555 139 l 555 0 l 139 0 l 139 139 l 0 139 l 0 555 l 139 555 l 139 694 l 555 694 l 555 833 l 139 833 l 139 972 l 694 972 l 694 833 l 833 833 l 833 0 l 694 0 l 694 139 l 555 139 m 555 1111 l 555 1250 l 833 1250 l 833 1111 l 555 1111 m 0 1111 l 0 1250 l 278 1250 l 278 1111 l 0 1111 z "},"å":{"ha":972,"x_min":0,"x_max":833,"o":"m 555 139 l 555 555 l 278 555 l 278 139 l 555 139 m 555 139 l 555 0 l 139 0 l 139 139 l 0 139 l 0 555 l 139 555 l 139 694 l 555 694 l 555 833 l 139 833 l 139 1111 l 278 1111 l 278 972 l 555 972 l 555 1111 l 694 1111 l 694 833 l 833 833 l 833 0 l 694 0 l 694 139 l 555 139 m 278 1111 l 278 1250 l 555 1250 l 555 1111 l 278 1111 z "},"æ":{"ha":1111,"x_min":0,"x_max":972,"o":"m 416 139 l 416 555 l 278 555 l 278 139 l 416 139 m 694 555 l 694 833 l 555 833 l 555 555 l 694 555 m 416 139 l 416 0 l 139 0 l 139 139 l 0 139 l 0 555 l 139 555 l 139 694 l 416 694 l 416 833 l 139 833 l 139 972 l 833 972 l 833 833 l 972 833 l 972 416 l 694 416 l 694 139 l 833 139 l 833 0 l 555 0 l 555 139 l 416 139 m 833 139 l 833 278 l 972 278 l 972 139 l 833 139 z "},"ç":{"ha":972,"x_min":0,"x_max":833,"o":"m 139 -139 l 139 0 l 278 0 l 278 139 l 139 139 l 139 278 l 0 278 l 0 972 l 139 972 l 139 1111 l 694 1111 l 694 972 l 833 972 l 833 694 l 555 694 l 555 972 l 278 972 l 278 278 l 555 278 l 555 555 l 833 555 l 833 278 l 694 278 l 694 139 l 555 139 l 555 0 l 416 0 l 416 -139 l 139 -139 z "},"è":{"ha":972,"x_min":0,"x_max":833,"o":"m 555 555 l 555 694 l 278 694 l 278 555 l 555 555 m 139 0 l 139 139 l 0 139 l 0 694 l 139 694 l 139 833 l 694 833 l 694 694 l 833 694 l 833 416 l 278 416 l 278 139 l 555 139 l 555 278 l 833 278 l 833 139 l 694 139 l 694 0 l 139 0 m 278 972 l 278 1111 l 139 1111 l 139 1250 l 416 1250 l 416 1111 l 555 1111 l 555 972 l 278 972 z "},"é":{"ha":972,"x_min":0,"x_max":833,"o":"m 555 555 l 555 694 l 278 694 l 278 555 l 555 555 m 139 0 l 139 139 l 0 139 l 0 694 l 139 694 l 139 833 l 694 833 l 694 694 l 833 694 l 833 416 l 278 416 l 278 139 l 555 139 l 555 278 l 833 278 l 833 139 l 694 139 l 694 0 l 139 0 m 278 972 l 278 1111 l 416 1111 l 416 1250 l 694 1250 l 694 1111 l 555 1111 l 555 972 l 278 972 z "},"ê":{"ha":972,"x_min":0,"x_max":833,"o":"m 555 555 l 555 694 l 278 694 l 278 555 l 555 555 m 139 0 l 139 139 l 0 139 l 0 694 l 139 694 l 139 833 l 694 833 l 694 694 l 833 694 l 833 416 l 278 416 l 278 139 l 555 139 l 555 278 l 833 278 l 833 139 l 694 139 l 694 0 l 139 0 m 555 972 l 555 1111 l 694 1111 l 694 972 l 555 972 m 139 972 l 139 1111 l 278 1111 l 278 1250 l 555 1250 l 555 1111 l 416 1111 l 416 972 l 139 972 z "},"ë":{"ha":972,"x_min":0,"x_max":833,"o":"m 555 555 l 555 833 l 278 833 l 278 555 l 555 555 m 139 0 l 139 139 l 0 139 l 0 833 l 139 833 l 139 972 l 694 972 l 694 833 l 833 833 l 833 416 l 278 416 l 278 139 l 555 139 l 555 278 l 833 278 l 833 139 l 694 139 l 694 0 l 139 0 m 0 1111 l 0 1250 l 278 1250 l 278 1111 l 0 1111 m 555 1111 l 555 1250 l 833 1250 l 833 1111 l 555 1111 z "},"ì":{"ha":555,"x_min":0,"x_max":416,"o":"m 139 0 l 139 833 l 416 833 l 416 0 l 139 0 m 139 972 l 139 1111 l 0 1111 l 0 1250 l 278 1250 l 278 1111 l 416 1111 l 416 972 l 139 972 z "},"í":{"ha":555,"x_min":0,"x_max":416,"o":"m 0 0 l 0 833 l 278 833 l 278 0 l 0 0 m 0 972 l 0 1111 l 139 1111 l 139 1250 l 416 1250 l 416 1111 l 278 1111 l 278 972 l 0 972 z "},"î":{"ha":694,"x_min":0,"x_max":555,"o":"m 139 0 l 139 833 l 416 833 l 416 0 l 139 0 m 416 972 l 416 1111 l 555 1111 l 555 972 l 416 972 m 0 972 l 0 1111 l 139 1111 l 139 1250 l 416 1250 l 416 1111 l 278 1111 l 278 972 l 0 972 z "},"ï":{"ha":972,"x_min":0,"x_max":833,"o":"m 278 0 l 278 972 l 555 972 l 555 0 l 278 0 m 0 1111 l 0 1250 l 278 1250 l 278 1111 l 0 1111 m 555 1111 l 555 1250 l 833 1250 l 833 1111 l 555 1111 z "},"ð":{"ha":972,"x_min":0,"x_max":833,"o":"m 555 139 l 555 694 l 416 694 l 416 555 l 278 555 l 278 139 l 555 139 m 139 833 l 139 972 l 278 972 l 278 833 l 139 833 m 139 0 l 139 139 l 0 139 l 0 555 l 139 555 l 139 694 l 278 694 l 278 833 l 416 833 l 416 972 l 278 972 l 278 1111 l 139 1111 l 139 1250 l 416 1250 l 416 1111 l 555 1111 l 555 972 l 694 972 l 694 833 l 833 833 l 833 139 l 694 139 l 694 0 l 139 0 m 555 1111 l 555 1250 l 694 1250 l 694 1111 l 555 1111 z "},"ñ":{"ha":972,"x_min":0,"x_max":833,"o":"m 0 0 l 0 833 l 694 833 l 694 694 l 833 694 l 833 0 l 555 0 l 555 694 l 278 694 l 278 0 l 0 0 m 0 972 l 0 1111 l 139 1111 l 139 1250 l 555 1250 l 555 1111 l 694 1111 l 694 972 l 416 972 l 416 1111 l 278 1111 l 278 972 l 0 972 m 694 1111 l 694 1250 l 833 1250 l 833 1111 l 694 1111 z "},"ò":{"ha":972,"x_min":0,"x_max":833,"o":"m 555 139 l 555 694 l 278 694 l 278 139 l 555 139 m 139 0 l 139 139 l 0 139 l 0 694 l 139 694 l 139 833 l 694 833 l 694 694 l 833 694 l 833 139 l 694 139 l 694 0 l 139 0 m 278 972 l 278 1111 l 139 1111 l 139 1250 l 416 1250 l 416 1111 l 555 1111 l 555 972 l 278 972 z "},"ó":{"ha":972,"x_min":0,"x_max":833,"o":"m 555 139 l 555 694 l 278 694 l 278 139 l 555 139 m 139 0 l 139 139 l 0 139 l 0 694 l 139 694 l 139 833 l 694 833 l 694 694 l 833 694 l 833 139 l 694 139 l 694 0 l 139 0 m 278 972 l 278 1111 l 416 1111 l 416 1250 l 694 1250 l 694 1111 l 555 1111 l 555 972 l 278 972 z "},"ô":{"ha":972,"x_min":0,"x_max":833,"o":"m 555 139 l 555 694 l 278 694 l 278 139 l 555 139 m 139 0 l 139 139 l 0 139 l 0 694 l 139 694 l 139 833 l 694 833 l 694 694 l 833 694 l 833 139 l 694 139 l 694 0 l 139 0 m 555 972 l 555 1111 l 694 1111 l 694 972 l 555 972 m 139 972 l 139 1111 l 278 1111 l 278 1250 l 555 1250 l 555 1111 l 416 1111 l 416 972 l 139 972 z "},"õ":{"ha":972,"x_min":0,"x_max":833,"o":"m 555 139 l 555 694 l 278 694 l 278 139 l 555 139 m 139 0 l 139 139 l 0 139 l 0 694 l 139 694 l 139 833 l 694 833 l 694 694 l 833 694 l 833 139 l 694 139 l 694 0 l 139 0 m 0 972 l 0 1111 l 139 1111 l 139 1250 l 555 1250 l 555 1111 l 694 1111 l 694 972 l 416 972 l 416 1111 l 278 1111 l 278 972 l 0 972 m 694 1111 l 694 1250 l 833 1250 l 833 1111 l 694 1111 z "},"ö":{"ha":972,"x_min":0,"x_max":833,"o":"m 555 139 l 555 833 l 278 833 l 278 139 l 555 139 m 139 0 l 139 139 l 0 139 l 0 833 l 139 833 l 139 972 l 694 972 l 694 833 l 833 833 l 833 139 l 694 139 l 694 0 l 139 0 m 0 1111 l 0 1250 l 278 1250 l 278 1111 l 0 1111 m 555 1111 l 555 1250 l 833 1250 l 833 1111 l 555 1111 z "},"÷":{"ha":972,"x_min":0,"x_max":833,"o":"m 278 139 l 278 416 l 555 416 l 555 139 l 278 139 m 0 555 l 0 694 l 833 694 l 833 555 l 0 555 m 278 833 l 278 1111 l 555 1111 l 555 833 l 278 833 z "},"ø":{"ha":972,"x_min":0,"x_max":833,"o":"m 555 833 l 278 833 l 278 555 l 416 555 l 416 694 l 555 694 l 555 833 m 278 139 l 555 139 l 555 416 l 416 416 l 416 278 l 278 278 l 278 139 m 555 833 l 694 833 l 694 694 l 833 694 l 833 139 l 694 139 l 694 0 l 278 0 l 278 139 l 139 139 l 139 278 l 0 278 l 0 833 l 139 833 l 139 972 l 555 972 l 555 833 m 694 833 l 694 972 l 833 972 l 833 833 l 694 833 m 0 0 l 0 139 l 139 139 l 139 0 l 0 0 z "},"ù":{"ha":972,"x_min":0,"x_max":833,"o":"m 139 0 l 139 139 l 0 139 l 0 833 l 278 833 l 278 139 l 555 139 l 555 0 l 139 0 m 694 0 l 694 139 l 555 139 l 555 833 l 833 833 l 833 0 l 694 0 m 278 972 l 278 1111 l 139 1111 l 139 1250 l 416 1250 l 416 1111 l 555 1111 l 555 972 l 278 972 z "},"ú":{"ha":972,"x_min":0,"x_max":833,"o":"m 139 0 l 139 139 l 0 139 l 0 833 l 278 833 l 278 139 l 555 139 l 555 0 l 139 0 m 694 0 l 694 139 l 555 139 l 555 833 l 833 833 l 833 0 l 694 0 m 278 972 l 278 1111 l 416 1111 l 416 1250 l 694 1250 l 694 1111 l 555 1111 l 555 972 l 278 972 z "},"û":{"ha":972,"x_min":0,"x_max":833,"o":"m 139 0 l 139 139 l 0 139 l 0 833 l 278 833 l 278 139 l 555 139 l 555 0 l 139 0 m 694 0 l 694 139 l 555 139 l 555 833 l 833 833 l 833 0 l 694 0 m 555 972 l 555 1111 l 694 1111 l 694 972 l 555 972 m 139 972 l 139 1111 l 278 1111 l 278 1250 l 555 1250 l 555 1111 l 416 1111 l 416 972 l 139 972 z "},"ü":{"ha":972,"x_min":0,"x_max":833,"o":"m 139 0 l 139 139 l 0 139 l 0 972 l 278 972 l 278 139 l 555 139 l 555 0 l 139 0 m 694 0 l 694 139 l 555 139 l 555 972 l 833 972 l 833 0 l 694 0 m 0 1111 l 0 1250 l 278 1250 l 278 1111 l 0 1111 m 555 1111 l 555 1250 l 833 1250 l 833 1111 l 555 1111 z "},"ý":{"ha":972,"x_min":0,"x_max":833,"o":"m 139 -139 l 139 0 l 555 0 l 555 139 l 139 139 l 139 278 l 0 278 l 0 833 l 278 833 l 278 278 l 555 278 l 555 833 l 833 833 l 833 0 l 694 0 l 694 -139 l 139 -139 m 278 972 l 278 1111 l 416 1111 l 416 1250 l 694 1250 l 694 1111 l 555 1111 l 555 972 l 278 972 z "},"þ":{"ha":972,"x_min":0,"x_max":833,"o":"m 416 0 l 416 139 l 555 139 l 555 833 l 416 833 l 416 972 l 694 972 l 694 833 l 833 833 l 833 139 l 694 139 l 694 0 l 416 0 m 0 -139 l 0 1111 l 278 1111 l 278 833 l 416 833 l 416 694 l 278 694 l 278 278 l 416 278 l 416 139 l 278 139 l 278 -139 l 0 -139 z "},"ÿ":{"ha":972,"x_min":0,"x_max":833,"o":"m 139 -139 l 139 0 l 555 0 l 555 139 l 139 139 l 139 278 l 0 278 l 0 972 l 278 972 l 278 278 l 555 278 l 555 972 l 833 972 l 833 0 l 694 0 l 694 -139 l 139 -139 m 0 1111 l 0 1250 l 278 1250 l 278 1111 l 0 1111 m 555 1111 l 555 1250 l 833 1250 l 833 1111 l 555 1111 z "},"Ā":{"ha":972,"x_min":0,"x_max":833,"o":"m 555 416 l 555 694 l 278 694 l 278 416 l 555 416 m 0 0 l 0 694 l 139 694 l 139 833 l 278 833 l 278 972 l 555 972 l 555 833 l 694 833 l 694 694 l 833 694 l 833 0 l 555 0 l 555 278 l 278 278 l 278 0 l 0 0 m 0 1111 l 0 1250 l 833 1250 l 833 1111 l 0 1111 z "},"ā":{"ha":972,"x_min":0,"x_max":833,"o":"m 555 139 l 555 555 l 278 555 l 278 139 l 555 139 m 555 139 l 555 0 l 139 0 l 139 139 l 0 139 l 0 555 l 139 555 l 139 694 l 555 694 l 555 833 l 139 833 l 139 972 l 694 972 l 694 833 l 833 833 l 833 0 l 694 0 l 694 139 l 555 139 m 0 1111 l 0 1250 l 833 1250 l 833 1111 l 0 1111 z "},"Ă":{"ha":972,"x_min":0,"x_max":833,"o":"m 555 416 l 555 694 l 278 694 l 278 416 l 555 416 m 0 0 l 0 694 l 139 694 l 139 833 l 694 833 l 694 694 l 833 694 l 833 0 l 555 0 l 555 278 l 278 278 l 278 0 l 0 0 m 278 972 l 278 1111 l 555 1111 l 555 972 l 278 972 m 139 1111 l 139 1250 l 278 1250 l 278 1111 l 139 1111 m 555 1111 l 555 1250 l 694 1250 l 694 1111 l 555 1111 z "},"ă":{"ha":972,"x_min":0,"x_max":833,"o":"m 555 139 l 555 416 l 278 416 l 278 139 l 555 139 m 555 139 l 555 0 l 139 0 l 139 139 l 0 139 l 0 416 l 139 416 l 139 555 l 555 555 l 555 694 l 139 694 l 139 833 l 694 833 l 694 694 l 833 694 l 833 0 l 694 0 l 694 139 l 555 139 m 555 1111 l 555 1250 l 694 1250 l 694 1111 l 555 1111 m 139 1111 l 139 1250 l 278 1250 l 278 1111 l 139 1111 m 278 972 l 278 1111 l 555 1111 l 555 972 l 278 972 z "},"Ą":{"ha":972,"x_min":0,"x_max":833,"o":"m 555 694 l 555 972 l 278 972 l 278 694 l 555 694 m 555 -139 l 555 0 l 416 0 l 416 139 l 555 139 l 555 555 l 278 555 l 278 139 l 0 139 l 0 972 l 139 972 l 139 1111 l 278 1111 l 278 1250 l 555 1250 l 555 1111 l 694 1111 l 694 972 l 833 972 l 833 139 l 694 139 l 694 0 l 833 0 l 833 -139 l 555 -139 z "},"ą":{"ha":972,"x_min":0,"x_max":833,"o":"m 555 278 l 555 139 l 694 139 l 694 278 l 555 278 m 555 278 l 555 694 l 278 694 l 278 278 l 555 278 m 694 139 l 694 0 l 833 0 l 833 -139 l 555 -139 l 555 0 l 416 0 l 416 139 l 139 139 l 139 278 l 0 278 l 0 694 l 139 694 l 139 833 l 555 833 l 555 972 l 139 972 l 139 1111 l 694 1111 l 694 972 l 833 972 l 833 139 l 694 139 z "},"Ć":{"ha":972,"x_min":0,"x_max":833,"o":"m 139 0 l 139 139 l 0 139 l 0 694 l 139 694 l 139 833 l 694 833 l 694 694 l 833 694 l 833 555 l 555 555 l 555 694 l 278 694 l 278 139 l 555 139 l 555 278 l 833 278 l 833 139 l 694 139 l 694 0 l 139 0 m 278 972 l 278 1111 l 416 1111 l 416 1250 l 694 1250 l 694 1111 l 555 1111 l 555 972 l 278 972 z "},"ć":{"ha":972,"x_min":0,"x_max":833,"o":"m 139 0 l 139 139 l 0 139 l 0 694 l 139 694 l 139 833 l 694 833 l 694 694 l 833 694 l 833 555 l 555 555 l 555 694 l 278 694 l 278 139 l 555 139 l 555 278 l 833 278 l 833 139 l 694 139 l 694 0 l 139 0 m 278 972 l 278 1111 l 416 1111 l 416 1250 l 694 1250 l 694 1111 l 555 1111 l 555 972 l 278 972 z "},"Ĉ":{"ha":972,"x_min":0,"x_max":833,"o":"m 139 0 l 139 139 l 0 139 l 0 694 l 139 694 l 139 833 l 694 833 l 694 694 l 833 694 l 833 555 l 555 555 l 555 694 l 278 694 l 278 139 l 555 139 l 555 278 l 833 278 l 833 139 l 694 139 l 694 0 l 139 0 m 555 972 l 555 1111 l 694 1111 l 694 972 l 555 972 m 139 972 l 139 1111 l 278 1111 l 278 1250 l 555 1250 l 555 1111 l 416 1111 l 416 972 l 139 972 z "},"ĉ":{"ha":972,"x_min":0,"x_max":833,"o":"m 139 0 l 139 139 l 0 139 l 0 694 l 139 694 l 139 833 l 694 833 l 694 694 l 833 694 l 833 555 l 555 555 l 555 694 l 278 694 l 278 139 l 555 139 l 555 278 l 833 278 l 833 139 l 694 139 l 694 0 l 139 0 m 555 972 l 555 1111 l 694 1111 l 694 972 l 555 972 m 139 972 l 139 1111 l 278 1111 l 278 1250 l 555 1250 l 555 1111 l 416 1111 l 416 972 l 139 972 z "},"Ċ":{"ha":972,"x_min":0,"x_max":833,"o":"m 139 0 l 139 139 l 0 139 l 0 833 l 139 833 l 139 972 l 694 972 l 694 833 l 833 833 l 833 555 l 555 555 l 555 833 l 278 833 l 278 139 l 555 139 l 555 416 l 833 416 l 833 139 l 694 139 l 694 0 l 139 0 m 278 1111 l 278 1250 l 555 1250 l 555 1111 l 278 1111 z "},"ċ":{"ha":972,"x_min":0,"x_max":833,"o":"m 139 0 l 139 139 l 0 139 l 0 833 l 139 833 l 139 972 l 694 972 l 694 833 l 833 833 l 833 555 l 555 555 l 555 833 l 278 833 l 278 139 l 555 139 l 555 416 l 833 416 l 833 139 l 694 139 l 694 0 l 139 0 m 278 1111 l 278 1250 l 555 1250 l 555 1111 l 278 1111 z "},"Č":{"ha":972,"x_min":0,"x_max":833,"o":"m 139 0 l 139 139 l 0 139 l 0 694 l 139 694 l 139 833 l 694 833 l 694 694 l 833 694 l 833 555 l 555 555 l 555 694 l 278 694 l 278 139 l 555 139 l 555 278 l 833 278 l 833 139 l 694 139 l 694 0 l 139 0 m 278 972 l 278 1111 l 139 1111 l 139 1250 l 416 1250 l 416 1111 l 555 1111 l 555 972 l 278 972 m 555 1111 l 555 1250 l 694 1250 l 694 1111 l 555 1111 z "},"č":{"ha":972,"x_min":0,"x_max":833,"o":"m 139 0 l 139 139 l 0 139 l 0 694 l 139 694 l 139 833 l 694 833 l 694 694 l 833 694 l 833 555 l 555 555 l 555 694 l 278 694 l 278 139 l 555 139 l 555 278 l 833 278 l 833 139 l 694 139 l 694 0 l 139 0 m 278 972 l 278 1111 l 139 1111 l 139 1250 l 416 1250 l 416 1111 l 555 1111 l 555 972 l 278 972 m 555 1111 l 555 1250 l 694 1250 l 694 1111 l 555 1111 z "},"Ď":{"ha":972,"x_min":0,"x_max":833,"o":"m 555 139 l 555 694 l 278 694 l 278 139 l 555 139 m 0 0 l 0 833 l 694 833 l 694 694 l 833 694 l 833 139 l 694 139 l 694 0 l 0 0 m 278 972 l 278 1111 l 139 1111 l 139 1250 l 416 1250 l 416 1111 l 555 1111 l 555 972 l 278 972 m 555 1111 l 555 1250 l 694 1250 l 694 1111 l 555 1111 z "},"ď":{"ha":1111,"x_min":0,"x_max":972,"o":"m 416 139 l 416 833 l 278 833 l 278 139 l 416 139 m 416 139 l 416 0 l 139 0 l 139 139 l 0 139 l 0 833 l 139 833 l 139 972 l 416 972 l 416 1250 l 694 1250 l 694 0 l 555 0 l 555 139 l 416 139 m 833 833 l 833 1250 l 972 1250 l 972 833 l 833 833 z "},"Đ":{"ha":1111,"x_min":0,"x_max":972,"o":"m 694 139 l 694 1111 l 416 1111 l 416 694 l 555 694 l 555 555 l 416 555 l 416 139 l 694 139 m 139 0 l 139 555 l 0 555 l 0 694 l 139 694 l 139 1250 l 833 1250 l 833 1111 l 972 1111 l 972 139 l 833 139 l 833 0 l 139 0 z "},"đ":{"ha":1111,"x_min":0,"x_max":972,"o":"m 555 139 l 555 694 l 278 694 l 278 139 l 555 139 m 555 139 l 555 0 l 139 0 l 139 139 l 0 139 l 0 694 l 139 694 l 139 833 l 555 833 l 555 972 l 278 972 l 278 1111 l 555 1111 l 555 1250 l 833 1250 l 833 1111 l 972 1111 l 972 972 l 833 972 l 833 0 l 694 0 l 694 139 l 555 139 z "},"Ē":{"ha":972,"x_min":0,"x_max":833,"o":"m 0 0 l 0 972 l 833 972 l 833 833 l 278 833 l 278 555 l 694 555 l 694 416 l 278 416 l 278 139 l 833 139 l 833 0 l 0 0 m 0 1111 l 0 1250 l 833 1250 l 833 1111 l 0 1111 z "},"ē":{"ha":972,"x_min":0,"x_max":833,"o":"m 555 555 l 555 833 l 278 833 l 278 555 l 555 555 m 139 0 l 139 139 l 0 139 l 0 833 l 139 833 l 139 972 l 694 972 l 694 833 l 833 833 l 833 416 l 278 416 l 278 139 l 555 139 l 555 278 l 833 278 l 833 139 l 694 139 l 694 0 l 139 0 m 0 1111 l 0 1250 l 833 1250 l 833 1111 l 0 1111 z "},"Ĕ":{"ha":972,"x_min":0,"x_max":833,"o":"m 0 0 l 0 833 l 833 833 l 833 694 l 278 694 l 278 555 l 694 555 l 694 416 l 278 416 l 278 139 l 833 139 l 833 0 l 0 0 m 278 972 l 278 1111 l 555 1111 l 555 972 l 278 972 m 139 1111 l 139 1250 l 278 1250 l 278 1111 l 139 1111 m 555 1111 l 555 1250 l 694 1250 l 694 1111 l 555 1111 z "},"ĕ":{"ha":972,"x_min":0,"x_max":833,"o":"m 555 555 l 555 694 l 278 694 l 278 555 l 555 555 m 139 0 l 139 139 l 0 139 l 0 694 l 139 694 l 139 833 l 694 833 l 694 694 l 833 694 l 833 416 l 278 416 l 278 139 l 555 139 l 555 278 l 833 278 l 833 139 l 694 139 l 694 0 l 139 0 m 278 972 l 278 1111 l 555 1111 l 555 972 l 278 972 m 139 1111 l 139 1250 l 278 1250 l 278 1111 l 139 1111 m 555 1111 l 555 1250 l 694 1250 l 694 1111 l 555 1111 z "},"Ė":{"ha":972,"x_min":0,"x_max":833,"o":"m 0 0 l 0 972 l 833 972 l 833 833 l 278 833 l 278 555 l 694 555 l 694 416 l 278 416 l 278 139 l 833 139 l 833 0 l 0 0 m 278 1111 l 278 1250 l 555 1250 l 555 1111 l 278 1111 z "},"ė":{"ha":972,"x_min":0,"x_max":833,"o":"m 555 555 l 555 833 l 278 833 l 278 555 l 555 555 m 139 0 l 139 139 l 0 139 l 0 833 l 139 833 l 139 972 l 694 972 l 694 833 l 833 833 l 833 416 l 278 416 l 278 139 l 555 139 l 555 278 l 833 278 l 833 139 l 694 139 l 694 0 l 139 0 m 278 1111 l 278 1250 l 555 1250 l 555 1111 l 278 1111 z "},"Ę":{"ha":972,"x_min":0,"x_max":833,"o":"m 555 -139 l 555 0 l 416 0 l 416 139 l 0 139 l 0 1250 l 833 1250 l 833 1111 l 278 1111 l 278 833 l 694 833 l 694 694 l 278 694 l 278 278 l 833 278 l 833 139 l 694 139 l 694 0 l 833 0 l 833 -139 l 555 -139 z "},"ę":{"ha":972,"x_min":0,"x_max":833,"o":"m 555 694 l 555 972 l 278 972 l 278 694 l 555 694 m 555 -139 l 555 0 l 416 0 l 416 139 l 139 139 l 139 278 l 0 278 l 0 972 l 139 972 l 139 1111 l 694 1111 l 694 972 l 833 972 l 833 555 l 278 555 l 278 278 l 555 278 l 555 416 l 833 416 l 833 278 l 694 278 l 694 0 l 833 0 l 833 -139 l 555 -139 z "},"Ě":{"ha":972,"x_min":0,"x_max":833,"o":"m 0 0 l 0 833 l 833 833 l 833 694 l 278 694 l 278 555 l 694 555 l 694 416 l 278 416 l 278 139 l 833 139 l 833 0 l 0 0 m 278 972 l 278 1111 l 139 1111 l 139 1250 l 416 1250 l 416 1111 l 555 1111 l 555 972 l 278 972 m 555 1111 l 555 1250 l 694 1250 l 694 1111 l 555 1111 z "},"ě":{"ha":972,"x_min":0,"x_max":833,"o":"m 555 555 l 555 694 l 278 694 l 278 555 l 555 555 m 139 0 l 139 139 l 0 139 l 0 694 l 139 694 l 139 833 l 694 833 l 694 694 l 833 694 l 833 416 l 278 416 l 278 139 l 555 139 l 555 278 l 833 278 l 833 139 l 694 139 l 694 0 l 139 0 m 278 972 l 278 1111 l 139 1111 l 139 1250 l 416 1250 l 416 1111 l 555 1111 l 555 972 l 278 972 m 555 1111 l 555 1250 l 694 1250 l 694 1111 l 555 1111 z "},"Ĝ":{"ha":972,"x_min":0,"x_max":833,"o":"m 139 0 l 139 139 l 0 139 l 0 694 l 139 694 l 139 833 l 694 833 l 694 694 l 833 694 l 833 555 l 555 555 l 555 694 l 278 694 l 278 139 l 555 139 l 555 278 l 416 278 l 416 416 l 833 416 l 833 139 l 694 139 l 694 0 l 139 0 m 555 972 l 555 1111 l 694 1111 l 694 972 l 555 972 m 139 972 l 139 1111 l 278 1111 l 278 1250 l 555 1250 l 555 1111 l 416 1111 l 416 972 l 139 972 z "},"ĝ":{"ha":972,"x_min":0,"x_max":833,"o":"m 555 694 l 278 694 l 278 278 l 555 278 l 555 694 m 555 694 l 694 694 l 694 833 l 833 833 l 833 0 l 694 0 l 694 -139 l 139 -139 l 139 0 l 555 0 l 555 139 l 139 139 l 139 278 l 0 278 l 0 694 l 139 694 l 139 833 l 555 833 l 555 694 m 139 972 l 139 1111 l 278 1111 l 278 1250 l 555 1250 l 555 1111 l 416 1111 l 416 972 l 139 972 m 555 972 l 555 1111 l 694 1111 l 694 972 l 555 972 z "},"Ğ":{"ha":972,"x_min":0,"x_max":833,"o":"m 139 0 l 139 139 l 0 139 l 0 694 l 139 694 l 139 833 l 694 833 l 694 694 l 833 694 l 833 555 l 555 555 l 555 694 l 278 694 l 278 139 l 555 139 l 555 278 l 416 278 l 416 416 l 833 416 l 833 139 l 694 139 l 694 0 l 139 0 m 278 972 l 278 1111 l 555 1111 l 555 972 l 278 972 m 139 1111 l 139 1250 l 278 1250 l 278 1111 l 139 1111 m 555 1111 l 555 1250 l 694 1250 l 694 1111 l 555 1111 z "},"ğ":{"ha":972,"x_min":0,"x_max":833,"o":"m 555 694 l 278 694 l 278 278 l 555 278 l 555 694 m 555 694 l 694 694 l 694 833 l 833 833 l 833 0 l 694 0 l 694 -139 l 139 -139 l 139 0 l 555 0 l 555 139 l 139 139 l 139 278 l 0 278 l 0 694 l 139 694 l 139 833 l 555 833 l 555 694 m 555 1111 l 555 1250 l 694 1250 l 694 1111 l 555 1111 m 139 1111 l 139 1250 l 278 1250 l 278 1111 l 139 1111 m 278 972 l 278 1111 l 555 1111 l 555 972 l 278 972 z "},"Ġ":{"ha":972,"x_min":0,"x_max":833,"o":"m 139 0 l 139 139 l 0 139 l 0 833 l 139 833 l 139 972 l 694 972 l 694 833 l 833 833 l 833 694 l 555 694 l 555 833 l 278 833 l 278 139 l 555 139 l 555 416 l 416 416 l 416 555 l 833 555 l 833 139 l 694 139 l 694 0 l 139 0 m 278 1111 l 278 1250 l 555 1250 l 555 1111 l 278 1111 z "},"ġ":{"ha":972,"x_min":0,"x_max":833,"o":"m 555 833 l 278 833 l 278 278 l 555 278 l 555 833 m 555 833 l 694 833 l 694 972 l 833 972 l 833 0 l 694 0 l 694 -139 l 139 -139 l 139 0 l 555 0 l 555 139 l 139 139 l 139 278 l 0 278 l 0 833 l 139 833 l 139 972 l 555 972 l 555 833 m 278 1111 l 278 1250 l 555 1250 l 555 1111 l 278 1111 z "},"Ģ":{"ha":972,"x_min":0,"x_max":833,"o":"m 139 -139 l 139 0 l 278 0 l 278 139 l 139 139 l 139 278 l 0 278 l 0 1111 l 139 1111 l 139 1250 l 694 1250 l 694 1111 l 833 1111 l 833 972 l 555 972 l 555 1111 l 278 1111 l 278 278 l 555 278 l 555 694 l 416 694 l 416 833 l 833 833 l 833 278 l 694 278 l 694 139 l 555 139 l 555 0 l 416 0 l 416 -139 l 139 -139 z "},"ģ":{"ha":972,"x_min":0,"x_max":833,"o":"m 555 694 l 278 694 l 278 278 l 555 278 l 555 694 m 555 694 l 694 694 l 694 833 l 833 833 l 833 0 l 694 0 l 694 -139 l 139 -139 l 139 0 l 555 0 l 555 139 l 139 139 l 139 278 l 0 278 l 0 694 l 139 694 l 139 833 l 555 833 l 555 694 m 278 972 l 278 1250 l 416 1250 l 416 1111 l 555 1111 l 555 972 l 278 972 z "},"Ĥ":{"ha":972,"x_min":0,"x_max":833,"o":"m 0 0 l 0 833 l 278 833 l 278 555 l 555 555 l 555 833 l 833 833 l 833 0 l 555 0 l 555 416 l 278 416 l 278 0 l 0 0 m 555 972 l 555 1111 l 694 1111 l 694 972 l 555 972 m 139 972 l 139 1111 l 278 1111 l 278 1250 l 555 1250 l 555 1111 l 416 1111 l 416 972 l 139 972 z "},"ĥ":{"ha":1111,"x_min":0,"x_max":972,"o":"m 139 0 l 139 833 l 416 833 l 416 694 l 833 694 l 833 555 l 972 555 l 972 0 l 694 0 l 694 555 l 416 555 l 416 0 l 139 0 m 416 972 l 416 1111 l 555 1111 l 555 972 l 416 972 m 0 972 l 0 1111 l 139 1111 l 139 1250 l 416 1250 l 416 1111 l 278 1111 l 278 972 l 0 972 z "},"Ħ":{"ha":1111,"x_min":0,"x_max":972,"o":"m 555 694 l 555 972 l 416 972 l 416 694 l 555 694 m 139 0 l 139 972 l 0 972 l 0 1111 l 139 1111 l 139 1250 l 416 1250 l 416 1111 l 555 1111 l 555 1250 l 833 1250 l 833 1111 l 972 1111 l 972 972 l 833 972 l 833 0 l 555 0 l 555 555 l 416 555 l 416 0 l 139 0 z "},"ħ":{"ha":1111,"x_min":0,"x_max":972,"o":"m 139 0 l 139 972 l 0 972 l 0 1111 l 139 1111 l 139 1250 l 416 1250 l 416 1111 l 694 1111 l 694 972 l 416 972 l 416 833 l 833 833 l 833 694 l 972 694 l 972 0 l 694 0 l 694 694 l 416 694 l 416 0 l 139 0 z "},"Ĩ":{"ha":972,"x_min":0,"x_max":833,"o":"m 278 0 l 278 833 l 555 833 l 555 0 l 278 0 m 0 972 l 0 1111 l 139 1111 l 139 1250 l 555 1250 l 555 1111 l 694 1111 l 694 972 l 416 972 l 416 1111 l 278 1111 l 278 972 l 0 972 m 694 1111 l 694 1250 l 833 1250 l 833 1111 l 694 1111 z "},"ĩ":{"ha":972,"x_min":0,"x_max":833,"o":"m 278 0 l 278 833 l 555 833 l 555 0 l 278 0 m 0 972 l 0 1111 l 139 1111 l 139 1250 l 555 1250 l 555 1111 l 694 1111 l 694 972 l 416 972 l 416 1111 l 278 1111 l 278 972 l 0 972 m 694 1111 l 694 1250 l 833 1250 l 833 1111 l 694 1111 z "},"Ī":{"ha":694,"x_min":0,"x_max":555,"o":"m 139 0 l 139 972 l 416 972 l 416 0 l 139 0 m 0 1111 l 0 1250 l 555 1250 l 555 1111 l 0 1111 z "},"ī":{"ha":694,"x_min":0,"x_max":555,"o":"m 139 0 l 139 972 l 416 972 l 416 0 l 139 0 m 0 1111 l 0 1250 l 555 1250 l 555 1111 l 0 1111 z "},"Ĭ":{"ha":694,"x_min":0,"x_max":555,"o":"m 139 0 l 139 833 l 416 833 l 416 0 l 139 0 m 139 972 l 139 1111 l 416 1111 l 416 972 l 139 972 m 0 1111 l 0 1250 l 139 1250 l 139 1111 l 0 1111 m 416 1111 l 416 1250 l 555 1250 l 555 1111 l 416 1111 z "},"ĭ":{"ha":694,"x_min":0,"x_max":555,"o":"m 139 0 l 139 833 l 416 833 l 416 0 l 139 0 m 139 972 l 139 1111 l 416 1111 l 416 972 l 139 972 m 0 1111 l 0 1250 l 139 1250 l 139 1111 l 0 1111 m 416 1111 l 416 1250 l 555 1250 l 555 1111 l 416 1111 z "},"Į":{"ha":555,"x_min":0,"x_max":416,"o":"m 139 -139 l 139 0 l 0 0 l 0 139 l 139 139 l 139 1250 l 416 1250 l 416 139 l 278 139 l 278 0 l 416 0 l 416 -139 l 139 -139 z "},"į":{"ha":555,"x_min":0,"x_max":416,"o":"m 139 -139 l 139 0 l 0 0 l 0 139 l 139 139 l 139 972 l 416 972 l 416 139 l 278 139 l 278 0 l 416 0 l 416 -139 l 139 -139 m 139 1111 l 139 1250 l 416 1250 l 416 1111 l 139 1111 z "},"İ":{"ha":416,"x_min":0,"x_max":278,"o":"m 0 0 l 0 972 l 278 972 l 278 0 l 0 0 m 0 1111 l 0 1250 l 278 1250 l 278 1111 l 0 1111 z "},"ı":{"ha":416,"x_min":0,"x_max":278,"o":"m 0 0 l 0 972 l 278 972 l 278 0 l 0 0 z "},"Ĳ":{"ha":1111,"x_min":0,"x_max":972,"o":"m 0 0 l 0 1250 l 278 1250 l 278 278 l 555 278 l 555 139 l 694 139 l 694 1250 l 972 1250 l 972 139 l 833 139 l 833 0 l 416 0 l 416 139 l 278 139 l 278 0 l 0 0 z "},"ĳ":{"ha":972,"x_min":0,"x_max":833,"o":"m 0 0 l 0 972 l 278 972 l 278 0 l 0 0 m 416 -139 l 416 0 l 555 0 l 555 972 l 833 972 l 833 0 l 694 0 l 694 -139 l 416 -139 m 0 1111 l 0 1250 l 278 1250 l 278 1111 l 0 1111 m 555 1111 l 555 1250 l 833 1250 l 833 1111 l 555 1111 z "},"Ĵ":{"ha":972,"x_min":0,"x_max":833,"o":"m 139 0 l 139 139 l 0 139 l 0 278 l 278 278 l 278 139 l 416 139 l 416 833 l 694 833 l 694 139 l 555 139 l 555 0 l 139 0 m 694 972 l 694 1111 l 833 1111 l 833 972 l 694 972 m 278 972 l 278 1111 l 416 1111 l 416 1250 l 694 1250 l 694 1111 l 555 1111 l 555 972 l 278 972 z "},"ĵ":{"ha":694,"x_min":0,"x_max":555,"o":"m 0 -139 l 0 0 l 139 0 l 139 833 l 416 833 l 416 0 l 278 0 l 278 -139 l 0 -139 m 416 972 l 416 1111 l 555 1111 l 555 972 l 416 972 m 0 972 l 0 1111 l 139 1111 l 139 1250 l 416 1250 l 416 1111 l 278 1111 l 278 972 l 0 972 z "},"Ķ":{"ha":972,"x_min":0,"x_max":833,"o":"m 139 -139 l 139 0 l 278 0 l 278 139 l 555 139 l 555 0 l 416 0 l 416 -139 l 139 -139 m 0 139 l 0 1250 l 278 1250 l 278 833 l 555 833 l 555 1250 l 833 1250 l 833 833 l 694 833 l 694 694 l 833 694 l 833 139 l 555 139 l 555 694 l 278 694 l 278 139 l 0 139 z "},"ķ":{"ha":972,"x_min":0,"x_max":833,"o":"m 139 -139 l 139 0 l 278 0 l 278 139 l 555 139 l 555 0 l 416 0 l 416 -139 l 139 -139 m 0 139 l 0 1250 l 278 1250 l 278 694 l 555 694 l 555 972 l 833 972 l 833 694 l 694 694 l 694 555 l 833 555 l 833 139 l 555 139 l 555 555 l 278 555 l 278 139 l 0 139 z "},"ĸ":{"ha":972,"x_min":0,"x_max":833,"o":"m 0 0 l 0 972 l 278 972 l 278 555 l 555 555 l 555 972 l 833 972 l 833 555 l 694 555 l 694 416 l 833 416 l 833 0 l 555 0 l 555 416 l 278 416 l 278 0 l 0 0 z "},"Ĺ":{"ha":972,"x_min":0,"x_max":833,"o":"m 0 0 l 0 833 l 278 833 l 278 139 l 833 139 l 833 0 l 0 0 m 0 972 l 0 1111 l 139 1111 l 139 1250 l 416 1250 l 416 1111 l 278 1111 l 278 972 l 0 972 z "},"ĺ":{"ha":555,"x_min":0,"x_max":416,"o":"m 0 0 l 0 833 l 278 833 l 278 0 l 0 0 m 0 972 l 0 1111 l 139 1111 l 139 1250 l 416 1250 l 416 1111 l 278 1111 l 278 972 l 0 972 z "},"Ļ":{"ha":972,"x_min":0,"x_max":833,"o":"m 139 -139 l 139 0 l 278 0 l 278 139 l 0 139 l 0 1250 l 278 1250 l 278 278 l 833 278 l 833 139 l 555 139 l 555 0 l 416 0 l 416 -139 l 139 -139 z "},"ļ":{"ha":555,"x_min":0,"x_max":416,"o":"m 0 -139 l 0 0 l 139 0 l 139 1250 l 416 1250 l 416 0 l 278 0 l 278 -139 l 0 -139 z "},"Ľ":{"ha":972,"x_min":0,"x_max":833,"o":"m 555 694 l 555 833 l 694 833 l 694 694 l 555 694 m 0 0 l 0 1250 l 278 1250 l 278 139 l 833 139 l 833 0 l 0 0 m 694 833 l 694 972 l 555 972 l 555 1250 l 833 1250 l 833 833 l 694 833 z "},"ľ":{"ha":972,"x_min":0,"x_max":833,"o":"m 555 694 l 555 833 l 694 833 l 694 694 l 555 694 m 0 0 l 0 1250 l 278 1250 l 278 0 l 0 0 m 694 833 l 694 972 l 555 972 l 555 1250 l 833 1250 l 833 833 l 694 833 z "},"Ŀ":{"ha":972,"x_min":0,"x_max":833,"o":"m 555 555 l 555 833 l 833 833 l 833 555 l 555 555 m 0 0 l 0 1250 l 278 1250 l 278 139 l 833 139 l 833 0 l 0 0 z "},"ŀ":{"ha":833,"x_min":0,"x_max":694,"o":"m 416 555 l 416 833 l 694 833 l 694 555 l 416 555 m 0 0 l 0 1250 l 278 1250 l 278 0 l 0 0 z "},"Ł":{"ha":1111,"x_min":0,"x_max":972,"o":"m 139 0 l 139 416 l 0 416 l 0 694 l 139 694 l 139 1250 l 416 1250 l 416 833 l 555 833 l 555 972 l 694 972 l 694 694 l 555 694 l 555 555 l 416 555 l 416 139 l 972 139 l 972 0 l 139 0 z "},"ł":{"ha":833,"x_min":0,"x_max":694,"o":"m 139 0 l 139 416 l 0 416 l 0 694 l 139 694 l 139 1250 l 416 1250 l 416 833 l 555 833 l 555 972 l 694 972 l 694 694 l 555 694 l 555 555 l 416 555 l 416 0 l 139 0 z "},"Ń":{"ha":972,"x_min":0,"x_max":833,"o":"m 0 0 l 0 833 l 278 833 l 278 694 l 416 694 l 416 555 l 555 555 l 555 833 l 833 833 l 833 0 l 555 0 l 555 278 l 416 278 l 416 416 l 278 416 l 278 0 l 0 0 m 278 972 l 278 1111 l 416 1111 l 416 1250 l 694 1250 l 694 1111 l 555 1111 l 555 972 l 278 972 z "},"ń":{"ha":972,"x_min":0,"x_max":833,"o":"m 0 0 l 0 833 l 139 833 l 139 694 l 278 694 l 278 0 l 0 0 m 555 0 l 555 694 l 278 694 l 278 833 l 694 833 l 694 694 l 833 694 l 833 0 l 555 0 m 278 972 l 278 1111 l 416 1111 l 416 1250 l 694 1250 l 694 1111 l 555 1111 l 555 972 l 278 972 z "},"Ņ":{"ha":972,"x_min":0,"x_max":833,"o":"m 139 -139 l 139 0 l 278 0 l 278 139 l 555 139 l 555 0 l 416 0 l 416 -139 l 139 -139 m 0 139 l 0 1250 l 278 1250 l 278 972 l 416 972 l 416 833 l 555 833 l 555 1250 l 833 1250 l 833 139 l 555 139 l 555 555 l 416 555 l 416 694 l 278 694 l 278 139 l 0 139 z "},"ņ":{"ha":972,"x_min":0,"x_max":833,"o":"m 139 -139 l 139 0 l 278 0 l 278 139 l 555 139 l 555 0 l 416 0 l 416 -139 l 139 -139 m 0 139 l 0 972 l 139 972 l 139 833 l 278 833 l 278 139 l 0 139 m 555 139 l 555 833 l 278 833 l 278 972 l 694 972 l 694 833 l 833 833 l 833 139 l 555 139 z "},"Ň":{"ha":972,"x_min":0,"x_max":833,"o":"m 0 0 l 0 833 l 278 833 l 278 694 l 416 694 l 416 555 l 555 555 l 555 833 l 833 833 l 833 0 l 555 0 l 555 278 l 416 278 l 416 416 l 278 416 l 278 0 l 0 0 m 278 972 l 278 1111 l 139 1111 l 139 1250 l 416 1250 l 416 1111 l 555 1111 l 555 972 l 278 972 m 555 1111 l 555 1250 l 694 1250 l 694 1111 l 555 1111 z "},"ň":{"ha":972,"x_min":0,"x_max":833,"o":"m 0 0 l 0 833 l 139 833 l 139 694 l 278 694 l 278 0 l 0 0 m 555 0 l 555 694 l 278 694 l 278 833 l 694 833 l 694 694 l 833 694 l 833 0 l 555 0 m 278 972 l 278 1111 l 139 1111 l 139 1250 l 416 1250 l 416 1111 l 555 1111 l 555 972 l 278 972 m 555 1111 l 555 1250 l 694 1250 l 694 1111 l 555 1111 z "},"ŉ":{"ha":1111,"x_min":0,"x_max":972,"o":"m 0 833 l 0 972 l 139 972 l 139 833 l 0 833 m 278 0 l 278 972 l 416 972 l 416 833 l 555 833 l 555 0 l 278 0 m 694 0 l 694 833 l 555 833 l 555 972 l 833 972 l 833 833 l 972 833 l 972 0 l 694 0 m 139 972 l 139 1111 l 0 1111 l 0 1250 l 278 1250 l 278 972 l 139 972 z "},"Ŋ":{"ha":972,"x_min":0,"x_max":833,"o":"m 416 -139 l 416 0 l 555 0 l 555 555 l 416 555 l 416 694 l 278 694 l 278 0 l 0 0 l 0 1250 l 278 1250 l 278 972 l 416 972 l 416 833 l 555 833 l 555 1250 l 833 1250 l 833 0 l 694 0 l 694 -139 l 416 -139 z "},"ŋ":{"ha":972,"x_min":0,"x_max":833,"o":"m 0 0 l 0 972 l 139 972 l 139 833 l 278 833 l 278 0 l 0 0 m 416 -139 l 416 0 l 555 0 l 555 833 l 278 833 l 278 972 l 694 972 l 694 833 l 833 833 l 833 0 l 694 0 l 694 -139 l 416 -139 z "},"Ō":{"ha":972,"x_min":0,"x_max":833,"o":"m 555 139 l 555 833 l 278 833 l 278 139 l 555 139 m 139 0 l 139 139 l 0 139 l 0 833 l 139 833 l 139 972 l 694 972 l 694 833 l 833 833 l 833 139 l 694 139 l 694 0 l 139 0 m 0 1111 l 0 1250 l 833 1250 l 833 1111 l 0 1111 z "},"ō":{"ha":972,"x_min":0,"x_max":833,"o":"m 555 139 l 555 833 l 278 833 l 278 139 l 555 139 m 139 0 l 139 139 l 0 139 l 0 833 l 139 833 l 139 972 l 694 972 l 694 833 l 833 833 l 833 139 l 694 139 l 694 0 l 139 0 m 0 1111 l 0 1250 l 833 1250 l 833 1111 l 0 1111 z "},"Ŏ":{"ha":972,"x_min":0,"x_max":833,"o":"m 555 139 l 555 694 l 278 694 l 278 139 l 555 139 m 139 0 l 139 139 l 0 139 l 0 694 l 139 694 l 139 833 l 694 833 l 694 694 l 833 694 l 833 139 l 694 139 l 694 0 l 139 0 m 278 972 l 278 1111 l 555 1111 l 555 972 l 278 972 m 139 1111 l 139 1250 l 278 1250 l 278 1111 l 139 1111 m 555 1111 l 555 1250 l 694 1250 l 694 1111 l 555 1111 z "},"ŏ":{"ha":972,"x_min":0,"x_max":833,"o":"m 555 139 l 555 694 l 278 694 l 278 139 l 555 139 m 139 0 l 139 139 l 0 139 l 0 694 l 139 694 l 139 833 l 694 833 l 694 694 l 833 694 l 833 139 l 694 139 l 694 0 l 139 0 m 278 972 l 278 1111 l 555 1111 l 555 972 l 278 972 m 139 1111 l 139 1250 l 278 1250 l 278 1111 l 139 1111 m 555 1111 l 555 1250 l 694 1250 l 694 1111 l 555 1111 z "},"Ő":{"ha":972,"x_min":0,"x_max":833,"o":"m 555 139 l 555 694 l 278 694 l 278 139 l 555 139 m 139 0 l 139 139 l 0 139 l 0 694 l 139 694 l 139 833 l 694 833 l 694 694 l 833 694 l 833 139 l 694 139 l 694 0 l 139 0 m 0 972 l 0 1111 l 139 1111 l 139 1250 l 416 1250 l 416 1111 l 278 1111 l 278 972 l 0 972 m 416 972 l 416 1111 l 555 1111 l 555 1250 l 833 1250 l 833 1111 l 694 1111 l 694 972 l 416 972 z "},"ő":{"ha":972,"x_min":0,"x_max":833,"o":"m 555 139 l 555 694 l 278 694 l 278 139 l 555 139 m 139 0 l 139 139 l 0 139 l 0 694 l 139 694 l 139 833 l 694 833 l 694 694 l 833 694 l 833 139 l 694 139 l 694 0 l 139 0 m 0 972 l 0 1111 l 139 1111 l 139 1250 l 416 1250 l 416 1111 l 278 1111 l 278 972 l 0 972 m 416 972 l 416 1111 l 555 1111 l 555 1250 l 833 1250 l 833 1111 l 694 1111 l 694 972 l 416 972 z "},"Œ":{"ha":1111,"x_min":0,"x_max":972,"o":"m 416 139 l 416 1111 l 278 1111 l 278 139 l 416 139 m 139 0 l 139 139 l 0 139 l 0 1111 l 139 1111 l 139 1250 l 972 1250 l 972 1111 l 694 1111 l 694 694 l 972 694 l 972 555 l 694 555 l 694 139 l 972 139 l 972 0 l 139 0 z "},"œ":{"ha":1111,"x_min":0,"x_max":972,"o":"m 416 139 l 416 833 l 278 833 l 278 139 l 416 139 m 694 555 l 694 833 l 555 833 l 555 555 l 694 555 m 416 139 l 416 0 l 139 0 l 139 139 l 0 139 l 0 833 l 139 833 l 139 972 l 833 972 l 833 833 l 972 833 l 972 416 l 694 416 l 694 139 l 833 139 l 833 0 l 555 0 l 555 139 l 416 139 m 833 139 l 833 278 l 972 278 l 972 139 l 833 139 z "},"Ŕ":{"ha":972,"x_min":0,"x_max":833,"o":"m 555 416 l 555 694 l 278 694 l 278 416 l 555 416 m 0 0 l 0 833 l 694 833 l 694 694 l 833 694 l 833 416 l 694 416 l 694 278 l 833 278 l 833 0 l 555 0 l 555 278 l 278 278 l 278 0 l 0 0 m 278 972 l 278 1111 l 416 1111 l 416 1250 l 694 1250 l 694 1111 l 555 1111 l 555 972 l 278 972 z "},"ŕ":{"ha":972,"x_min":0,"x_max":833,"o":"m 0 0 l 0 833 l 139 833 l 139 694 l 278 694 l 278 0 l 0 0 m 555 416 l 555 694 l 278 694 l 278 833 l 694 833 l 694 694 l 833 694 l 833 416 l 555 416 m 278 972 l 278 1111 l 416 1111 l 416 1250 l 694 1250 l 694 1111 l 555 1111 l 555 972 l 278 972 z "},"Ŗ":{"ha":972,"x_min":0,"x_max":833,"o":"m 139 -139 l 139 0 l 278 0 l 278 139 l 555 139 l 555 0 l 416 0 l 416 -139 l 139 -139 m 555 694 l 555 1111 l 278 1111 l 278 694 l 555 694 m 0 139 l 0 1250 l 694 1250 l 694 1111 l 833 1111 l 833 694 l 694 694 l 694 555 l 833 555 l 833 139 l 555 139 l 555 555 l 278 555 l 278 139 l 0 139 z "},"ŗ":{"ha":972,"x_min":0,"x_max":833,"o":"m 0 -139 l 0 0 l 139 0 l 139 972 l 278 972 l 278 833 l 416 833 l 416 0 l 278 0 l 278 -139 l 0 -139 m 555 555 l 555 833 l 416 833 l 416 972 l 694 972 l 694 833 l 833 833 l 833 555 l 555 555 z "},"Ř":{"ha":972,"x_min":0,"x_max":833,"o":"m 555 416 l 555 694 l 278 694 l 278 416 l 555 416 m 0 0 l 0 833 l 694 833 l 694 694 l 833 694 l 833 416 l 694 416 l 694 278 l 833 278 l 833 0 l 555 0 l 555 278 l 278 278 l 278 0 l 0 0 m 278 972 l 278 1111 l 139 1111 l 139 1250 l 416 1250 l 416 1111 l 555 1111 l 555 972 l 278 972 m 555 1111 l 555 1250 l 694 1250 l 694 1111 l 555 1111 z "},"ř":{"ha":972,"x_min":0,"x_max":833,"o":"m 0 0 l 0 833 l 139 833 l 139 694 l 278 694 l 278 0 l 0 0 m 555 416 l 555 694 l 278 694 l 278 833 l 694 833 l 694 694 l 833 694 l 833 416 l 555 416 m 278 972 l 278 1111 l 139 1111 l 139 1250 l 416 1250 l 416 1111 l 555 1111 l 555 972 l 278 972 m 555 1111 l 555 1250 l 694 1250 l 694 1111 l 555 1111 z "},"Ś":{"ha":972,"x_min":0,"x_max":833,"o":"m 139 0 l 139 139 l 0 139 l 0 278 l 278 278 l 278 139 l 555 139 l 555 278 l 416 278 l 416 416 l 833 416 l 833 139 l 694 139 l 694 0 l 139 0 m 0 416 l 0 694 l 139 694 l 139 833 l 694 833 l 694 694 l 833 694 l 833 555 l 555 555 l 555 694 l 278 694 l 278 555 l 416 555 l 416 416 l 0 416 m 278 972 l 278 1111 l 416 1111 l 416 1250 l 694 1250 l 694 1111 l 555 1111 l 555 972 l 278 972 z "},"ś":{"ha":972,"x_min":0,"x_max":833,"o":"m 139 0 l 139 139 l 0 139 l 0 278 l 278 278 l 278 139 l 555 139 l 555 278 l 416 278 l 416 416 l 833 416 l 833 139 l 694 139 l 694 0 l 139 0 m 0 416 l 0 694 l 139 694 l 139 833 l 694 833 l 694 694 l 833 694 l 833 555 l 555 555 l 555 694 l 278 694 l 278 555 l 416 555 l 416 416 l 0 416 m 278 972 l 278 1111 l 416 1111 l 416 1250 l 694 1250 l 694 1111 l 555 1111 l 555 972 l 278 972 z "},"Ŝ":{"ha":972,"x_min":0,"x_max":833,"o":"m 139 0 l 139 139 l 0 139 l 0 278 l 278 278 l 278 139 l 555 139 l 555 278 l 416 278 l 416 416 l 833 416 l 833 139 l 694 139 l 694 0 l 139 0 m 0 416 l 0 694 l 139 694 l 139 833 l 694 833 l 694 694 l 833 694 l 833 555 l 555 555 l 555 694 l 278 694 l 278 555 l 416 555 l 416 416 l 0 416 m 555 972 l 555 1111 l 694 1111 l 694 972 l 555 972 m 139 972 l 139 1111 l 278 1111 l 278 1250 l 555 1250 l 555 1111 l 416 1111 l 416 972 l 139 972 z "},"ŝ":{"ha":972,"x_min":0,"x_max":833,"o":"m 139 0 l 139 139 l 0 139 l 0 278 l 278 278 l 278 139 l 555 139 l 555 278 l 416 278 l 416 416 l 833 416 l 833 139 l 694 139 l 694 0 l 139 0 m 0 416 l 0 694 l 139 694 l 139 833 l 694 833 l 694 694 l 833 694 l 833 555 l 555 555 l 555 694 l 278 694 l 278 555 l 416 555 l 416 416 l 0 416 m 555 972 l 555 1111 l 694 1111 l 694 972 l 555 972 m 139 972 l 139 1111 l 278 1111 l 278 1250 l 555 1250 l 555 1111 l 416 1111 l 416 972 l 139 972 z "},"Ş":{"ha":972,"x_min":0,"x_max":833,"o":"m 139 -139 l 139 0 l 278 0 l 278 139 l 139 139 l 139 278 l 0 278 l 0 416 l 278 416 l 278 278 l 555 278 l 555 694 l 139 694 l 139 833 l 0 833 l 0 1111 l 139 1111 l 139 1250 l 694 1250 l 694 1111 l 833 1111 l 833 972 l 555 972 l 555 1111 l 278 1111 l 278 833 l 694 833 l 694 694 l 833 694 l 833 278 l 694 278 l 694 139 l 555 139 l 555 0 l 416 0 l 416 -139 l 139 -139 z "},"ş":{"ha":972,"x_min":0,"x_max":833,"o":"m 139 -139 l 139 0 l 278 0 l 278 139 l 139 139 l 139 278 l 0 278 l 0 416 l 278 416 l 278 278 l 555 278 l 555 416 l 416 416 l 416 555 l 833 555 l 833 278 l 694 278 l 694 139 l 555 139 l 555 0 l 416 0 l 416 -139 l 139 -139 m 0 555 l 0 833 l 139 833 l 139 972 l 694 972 l 694 833 l 833 833 l 833 694 l 555 694 l 555 833 l 278 833 l 278 694 l 416 694 l 416 555 l 0 555 z "},"Š":{"ha":972,"x_min":0,"x_max":833,"o":"m 139 0 l 139 139 l 0 139 l 0 278 l 278 278 l 278 139 l 555 139 l 555 278 l 416 278 l 416 416 l 833 416 l 833 139 l 694 139 l 694 0 l 139 0 m 0 416 l 0 694 l 139 694 l 139 833 l 694 833 l 694 694 l 833 694 l 833 555 l 555 555 l 555 694 l 278 694 l 278 555 l 416 555 l 416 416 l 0 416 m 278 972 l 278 1111 l 139 1111 l 139 1250 l 416 1250 l 416 1111 l 555 1111 l 555 972 l 278 972 m 555 1111 l 555 1250 l 694 1250 l 694 1111 l 555 1111 z "},"š":{"ha":972,"x_min":0,"x_max":833,"o":"m 139 0 l 139 139 l 0 139 l 0 278 l 278 278 l 278 139 l 555 139 l 555 278 l 416 278 l 416 416 l 833 416 l 833 139 l 694 139 l 694 0 l 139 0 m 0 416 l 0 694 l 139 694 l 139 833 l 694 833 l 694 694 l 833 694 l 833 555 l 555 555 l 555 694 l 278 694 l 278 555 l 416 555 l 416 416 l 0 416 m 278 972 l 278 1111 l 139 1111 l 139 1250 l 416 1250 l 416 1111 l 555 1111 l 555 972 l 278 972 m 555 1111 l 555 1250 l 694 1250 l 694 1111 l 555 1111 z "},"Ţ":{"ha":972,"x_min":0,"x_max":833,"o":"m 139 -139 l 139 0 l 278 0 l 278 1111 l 0 1111 l 0 1250 l 833 1250 l 833 1111 l 555 1111 l 555 0 l 416 0 l 416 -139 l 139 -139 z "},"ţ":{"ha":972,"x_min":0,"x_max":833,"o":"m 139 -139 l 139 0 l 278 0 l 278 139 l 139 139 l 139 694 l 0 694 l 0 833 l 139 833 l 139 972 l 416 972 l 416 833 l 833 833 l 833 694 l 416 694 l 416 139 l 694 139 l 694 0 l 416 0 l 416 -139 l 139 -139 z "},"Ť":{"ha":972,"x_min":0,"x_max":833,"o":"m 278 0 l 278 694 l 0 694 l 0 833 l 833 833 l 833 694 l 555 694 l 555 0 l 278 0 m 278 972 l 278 1111 l 139 1111 l 139 1250 l 416 1250 l 416 1111 l 555 1111 l 555 972 l 278 972 m 555 1111 l 555 1250 l 694 1250 l 694 1111 l 555 1111 z "},"ť":{"ha":1111,"x_min":0,"x_max":972,"o":"m 278 0 l 278 139 l 139 139 l 139 694 l 0 694 l 0 833 l 139 833 l 139 1111 l 416 1111 l 416 833 l 694 833 l 694 694 l 416 694 l 416 139 l 694 139 l 694 0 l 278 0 m 833 833 l 833 1111 l 972 1111 l 972 833 l 833 833 z "},"Ŧ":{"ha":972,"x_min":0,"x_max":833,"o":"m 278 0 l 278 694 l 139 694 l 139 833 l 278 833 l 278 1111 l 0 1111 l 0 1250 l 833 1250 l 833 1111 l 555 1111 l 555 833 l 694 833 l 694 694 l 555 694 l 555 0 l 278 0 z "},"ŧ":{"ha":972,"x_min":0,"x_max":833,"o":"m 278 0 l 278 139 l 139 139 l 139 416 l 0 416 l 0 555 l 139 555 l 139 694 l 0 694 l 0 833 l 139 833 l 139 1111 l 416 1111 l 416 833 l 833 833 l 833 694 l 416 694 l 416 555 l 694 555 l 694 416 l 416 416 l 416 139 l 694 139 l 694 0 l 278 0 z "},"Ũ":{"ha":972,"x_min":0,"x_max":833,"o":"m 139 0 l 139 139 l 0 139 l 0 833 l 278 833 l 278 139 l 555 139 l 555 833 l 833 833 l 833 139 l 694 139 l 694 0 l 139 0 m 0 972 l 0 1111 l 139 1111 l 139 1250 l 555 1250 l 555 1111 l 694 1111 l 694 972 l 416 972 l 416 1111 l 278 1111 l 278 972 l 0 972 m 694 1111 l 694 1250 l 833 1250 l 833 1111 l 694 1111 z "},"ũ":{"ha":972,"x_min":0,"x_max":833,"o":"m 139 0 l 139 139 l 0 139 l 0 833 l 278 833 l 278 139 l 555 139 l 555 0 l 139 0 m 694 0 l 694 139 l 555 139 l 555 833 l 833 833 l 833 0 l 694 0 m 0 972 l 0 1111 l 139 1111 l 139 1250 l 555 1250 l 555 1111 l 694 1111 l 694 972 l 416 972 l 416 1111 l 278 1111 l 278 972 l 0 972 m 694 1111 l 694 1250 l 833 1250 l 833 1111 l 694 1111 z "},"Ū":{"ha":972,"x_min":0,"x_max":833,"o":"m 139 0 l 139 139 l 0 139 l 0 972 l 278 972 l 278 139 l 555 139 l 555 972 l 833 972 l 833 139 l 694 139 l 694 0 l 139 0 m 0 1111 l 0 1250 l 833 1250 l 833 1111 l 0 1111 z "},"ū":{"ha":972,"x_min":0,"x_max":833,"o":"m 139 0 l 139 139 l 0 139 l 0 972 l 278 972 l 278 139 l 555 139 l 555 0 l 139 0 m 694 0 l 694 139 l 555 139 l 555 972 l 833 972 l 833 0 l 694 0 m 0 1111 l 0 1250 l 833 1250 l 833 1111 l 0 1111 z "},"Ŭ":{"ha":972,"x_min":0,"x_max":833,"o":"m 139 0 l 139 139 l 0 139 l 0 833 l 278 833 l 278 139 l 555 139 l 555 833 l 833 833 l 833 139 l 694 139 l 694 0 l 139 0 m 278 972 l 278 1111 l 555 1111 l 555 972 l 278 972 m 139 1111 l 139 1250 l 278 1250 l 278 1111 l 139 1111 m 555 1111 l 555 1250 l 694 1250 l 694 1111 l 555 1111 z "},"ŭ":{"ha":972,"x_min":0,"x_max":833,"o":"m 139 0 l 139 139 l 0 139 l 0 833 l 278 833 l 278 139 l 555 139 l 555 0 l 139 0 m 694 0 l 694 139 l 555 139 l 555 833 l 833 833 l 833 0 l 694 0 m 278 972 l 278 1111 l 555 1111 l 555 972 l 278 972 m 139 1111 l 139 1250 l 278 1250 l 278 1111 l 139 1111 m 555 1111 l 555 1250 l 694 1250 l 694 1111 l 555 1111 z "},"Ů":{"ha":972,"x_min":0,"x_max":833,"o":"m 139 0 l 139 139 l 0 139 l 0 833 l 278 833 l 278 139 l 555 139 l 555 833 l 833 833 l 833 139 l 694 139 l 694 0 l 139 0 m 278 833 l 278 972 l 555 972 l 555 833 l 278 833 m 139 972 l 139 1111 l 278 1111 l 278 972 l 139 972 m 555 972 l 555 1111 l 694 1111 l 694 972 l 555 972 m 278 1111 l 278 1250 l 555 1250 l 555 1111 l 278 1111 z "},"ů":{"ha":972,"x_min":0,"x_max":833,"o":"m 139 0 l 139 139 l 0 139 l 0 833 l 278 833 l 278 139 l 555 139 l 555 0 l 139 0 m 694 0 l 694 139 l 555 139 l 555 833 l 833 833 l 833 0 l 694 0 m 278 833 l 278 972 l 555 972 l 555 833 l 278 833 m 139 972 l 139 1111 l 278 1111 l 278 972 l 139 972 m 555 972 l 555 1111 l 694 1111 l 694 972 l 555 972 m 278 1111 l 278 1250 l 555 1250 l 555 1111 l 278 1111 z "},"Ű":{"ha":972,"x_min":0,"x_max":833,"o":"m 139 0 l 139 139 l 0 139 l 0 833 l 278 833 l 278 139 l 555 139 l 555 833 l 833 833 l 833 139 l 694 139 l 694 0 l 139 0 m 0 972 l 0 1111 l 139 1111 l 139 1250 l 416 1250 l 416 1111 l 278 1111 l 278 972 l 0 972 m 416 972 l 416 1111 l 555 1111 l 555 1250 l 833 1250 l 833 1111 l 694 1111 l 694 972 l 416 972 z "},"ű":{"ha":972,"x_min":0,"x_max":833,"o":"m 139 0 l 139 139 l 0 139 l 0 833 l 278 833 l 278 139 l 555 139 l 555 0 l 139 0 m 694 0 l 694 139 l 555 139 l 555 833 l 833 833 l 833 0 l 694 0 m 0 972 l 0 1111 l 139 1111 l 139 1250 l 416 1250 l 416 1111 l 278 1111 l 278 972 l 0 972 m 416 972 l 416 1111 l 555 1111 l 555 1250 l 833 1250 l 833 1111 l 694 1111 l 694 972 l 416 972 z "},"Ų":{"ha":972,"x_min":0,"x_max":833,"o":"m 416 -139 l 416 0 l 278 0 l 278 139 l 139 139 l 139 278 l 0 278 l 0 1250 l 278 1250 l 278 278 l 555 278 l 555 1250 l 833 1250 l 833 278 l 694 278 l 694 139 l 555 139 l 555 0 l 694 0 l 694 -139 l 416 -139 z "},"ų":{"ha":972,"x_min":0,"x_max":833,"o":"m 555 -139 l 555 0 l 416 0 l 416 139 l 139 139 l 139 278 l 0 278 l 0 972 l 278 972 l 278 278 l 555 278 l 555 139 l 694 139 l 694 0 l 833 0 l 833 -139 l 555 -139 m 694 139 l 694 278 l 555 278 l 555 972 l 833 972 l 833 139 l 694 139 z "},"Ŵ":{"ha":1111,"x_min":0,"x_max":972,"o":"m 0 0 l 0 833 l 278 833 l 278 416 l 416 416 l 416 555 l 555 555 l 555 416 l 694 416 l 694 833 l 972 833 l 972 0 l 694 0 l 694 139 l 555 139 l 555 278 l 416 278 l 416 139 l 278 139 l 278 0 l 0 0 m 278 972 l 278 1111 l 416 1111 l 416 972 l 278 972 m 555 972 l 555 1111 l 694 1111 l 694 972 l 555 972 m 416 1111 l 416 1250 l 555 1250 l 555 1111 l 416 1111 z "},"ŵ":{"ha":1111,"x_min":0,"x_max":972,"o":"m 139 0 l 139 139 l 0 139 l 0 833 l 278 833 l 278 278 l 416 278 l 416 416 l 555 416 l 555 278 l 694 278 l 694 833 l 972 833 l 972 139 l 833 139 l 833 0 l 555 0 l 555 139 l 416 139 l 416 0 l 139 0 m 278 972 l 278 1111 l 416 1111 l 416 972 l 278 972 m 555 972 l 555 1111 l 694 1111 l 694 972 l 555 972 m 416 1111 l 416 1250 l 555 1250 l 555 1111 l 416 1111 z "},"Ŷ":{"ha":972,"x_min":0,"x_max":833,"o":"m 278 0 l 278 278 l 139 278 l 139 416 l 0 416 l 0 833 l 278 833 l 278 416 l 555 416 l 555 833 l 833 833 l 833 416 l 694 416 l 694 278 l 555 278 l 555 0 l 278 0 m 555 972 l 555 1111 l 694 1111 l 694 972 l 555 972 m 139 972 l 139 1111 l 278 1111 l 278 1250 l 555 1250 l 555 1111 l 416 1111 l 416 972 l 139 972 z "},"ŷ":{"ha":972,"x_min":0,"x_max":833,"o":"m 139 -139 l 139 0 l 555 0 l 555 139 l 139 139 l 139 278 l 0 278 l 0 833 l 278 833 l 278 278 l 555 278 l 555 833 l 833 833 l 833 0 l 694 0 l 694 -139 l 139 -139 m 555 972 l 555 1111 l 694 1111 l 694 972 l 555 972 m 139 972 l 139 1111 l 278 1111 l 278 1250 l 555 1250 l 555 1111 l 416 1111 l 416 972 l 139 972 z "},"Ÿ":{"ha":972,"x_min":0,"x_max":833,"o":"m 278 0 l 278 416 l 139 416 l 139 555 l 0 555 l 0 972 l 278 972 l 278 555 l 555 555 l 555 972 l 833 972 l 833 555 l 694 555 l 694 416 l 555 416 l 555 0 l 278 0 m 0 1111 l 0 1250 l 278 1250 l 278 1111 l 0 1111 m 555 1111 l 555 1250 l 833 1250 l 833 1111 l 555 1111 z "},"Ź":{"ha":972,"x_min":0,"x_max":833,"o":"m 0 0 l 0 278 l 139 278 l 139 416 l 278 416 l 278 555 l 416 555 l 416 694 l 0 694 l 0 833 l 833 833 l 833 694 l 694 694 l 694 555 l 555 555 l 555 416 l 416 416 l 416 278 l 278 278 l 278 139 l 833 139 l 833 0 l 0 0 m 278 972 l 278 1111 l 416 1111 l 416 1250 l 694 1250 l 694 1111 l 555 1111 l 555 972 l 278 972 z "},"ź":{"ha":972,"x_min":0,"x_max":833,"o":"m 0 0 l 0 278 l 139 278 l 139 416 l 278 416 l 278 555 l 416 555 l 416 694 l 0 694 l 0 833 l 833 833 l 833 694 l 694 694 l 694 555 l 555 555 l 555 416 l 416 416 l 416 278 l 278 278 l 278 139 l 833 139 l 833 0 l 0 0 m 278 972 l 278 1111 l 416 1111 l 416 1250 l 694 1250 l 694 1111 l 555 1111 l 555 972 l 278 972 z "},"Ż":{"ha":972,"x_min":0,"x_max":833,"o":"m 0 0 l 0 278 l 139 278 l 139 416 l 278 416 l 278 555 l 416 555 l 416 694 l 555 694 l 555 833 l 0 833 l 0 972 l 833 972 l 833 694 l 694 694 l 694 555 l 555 555 l 555 416 l 416 416 l 416 278 l 278 278 l 278 139 l 833 139 l 833 0 l 0 0 m 278 1111 l 278 1250 l 555 1250 l 555 1111 l 278 1111 z "},"ż":{"ha":972,"x_min":0,"x_max":833,"o":"m 0 0 l 0 278 l 139 278 l 139 416 l 278 416 l 278 555 l 416 555 l 416 694 l 555 694 l 555 833 l 0 833 l 0 972 l 833 972 l 833 694 l 694 694 l 694 555 l 555 555 l 555 416 l 416 416 l 416 278 l 278 278 l 278 139 l 833 139 l 833 0 l 0 0 m 278 1111 l 278 1250 l 555 1250 l 555 1111 l 278 1111 z "},"Ž":{"ha":972,"x_min":0,"x_max":833,"o":"m 0 0 l 0 278 l 139 278 l 139 416 l 278 416 l 278 555 l 416 555 l 416 694 l 0 694 l 0 833 l 833 833 l 833 694 l 694 694 l 694 555 l 555 555 l 555 416 l 416 416 l 416 278 l 278 278 l 278 139 l 833 139 l 833 0 l 0 0 m 278 972 l 278 1111 l 139 1111 l 139 1250 l 416 1250 l 416 1111 l 555 1111 l 555 972 l 278 972 m 555 1111 l 555 1250 l 694 1250 l 694 1111 l 555 1111 z "},"ž":{"ha":972,"x_min":0,"x_max":833,"o":"m 0 0 l 0 278 l 139 278 l 139 416 l 278 416 l 278 555 l 416 555 l 416 694 l 0 694 l 0 833 l 833 833 l 833 694 l 694 694 l 694 555 l 555 555 l 555 416 l 416 416 l 416 278 l 278 278 l 278 139 l 833 139 l 833 0 l 0 0 m 278 972 l 278 1111 l 139 1111 l 139 1250 l 416 1250 l 416 1111 l 555 1111 l 555 972 l 278 972 m 555 1111 l 555 1250 l 694 1250 l 694 1111 l 555 1111 z "},"ſ":{"ha":972,"x_min":0,"x_max":833,"o":"m 139 0 l 139 555 l 0 555 l 0 694 l 139 694 l 139 1111 l 278 1111 l 278 1250 l 694 1250 l 694 1111 l 833 1111 l 833 972 l 555 972 l 555 1111 l 416 1111 l 416 0 l 139 0 z "},"ˆ":{"ha":694,"x_min":0,"x_max":555,"o":"m 416 972 l 416 1111 l 555 1111 l 555 972 l 416 972 m 0 972 l 0 1111 l 139 1111 l 139 1250 l 416 1250 l 416 1111 l 278 1111 l 278 972 l 0 972 z "},"˚":{"ha":694,"x_min":0,"x_max":555,"o":"m 416 972 l 416 1111 l 555 1111 l 555 972 l 416 972 m 139 833 l 139 972 l 0 972 l 0 1111 l 139 1111 l 139 1250 l 416 1250 l 416 1111 l 278 1111 l 278 972 l 416 972 l 416 833 l 139 833 z "},"˜":{"ha":972,"x_min":0,"x_max":833,"o":"m 0 972 l 0 1111 l 139 1111 l 139 1250 l 555 1250 l 555 1111 l 694 1111 l 694 972 l 416 972 l 416 1111 l 278 1111 l 278 972 l 0 972 m 694 1111 l 694 1250 l 833 1250 l 833 1111 l 694 1111 z "},"ẞ":{"ha":972,"x_min":0,"x_max":833,"o":"m 0 0 l 0 1111 l 139 1111 l 139 1250 l 555 1250 l 555 1111 l 694 1111 l 694 972 l 833 972 l 833 833 l 694 833 l 694 694 l 833 694 l 833 139 l 694 139 l 694 0 l 416 0 l 416 139 l 555 139 l 555 694 l 416 694 l 416 833 l 555 833 l 555 972 l 416 972 l 416 1111 l 278 1111 l 278 0 l 0 0 z "},"–":{"ha":972,"x_min":0,"x_max":833,"o":"m 0 555 l 0 694 l 833 694 l 833 555 l 0 555 z "},"—":{"ha":1111,"x_min":0,"x_max":972,"o":"m 0 555 l 0 694 l 972 694 l 972 555 l 0 555 z "},"‘":{"ha":416,"x_min":0,"x_max":278,"o":"m 0 694 l 0 1111 l 139 1111 l 139 972 l 278 972 l 278 694 l 0 694 m 139 1111 l 139 1250 l 278 1250 l 278 1111 l 139 1111 z "},"’":{"ha":416,"x_min":0,"x_max":278,"o":"m 0 694 l 0 833 l 139 833 l 139 694 l 0 694 m 139 833 l 139 972 l 0 972 l 0 1250 l 278 1250 l 278 833 l 139 833 z "},"‚":{"ha":416,"x_min":0,"x_max":278,"o":"m 0 -139 l 0 0 l 139 0 l 139 -139 l 0 -139 m 139 0 l 139 139 l 0 139 l 0 416 l 278 416 l 278 0 l 139 0 z "},"‛":{"ha":416,"x_min":0,"x_max":278,"o":"m 139 694 l 139 833 l 278 833 l 278 694 l 139 694 m 0 833 l 0 1250 l 278 1250 l 278 972 l 139 972 l 139 833 l 0 833 z "},"“":{"ha":833,"x_min":0,"x_max":694,"o":"m 0 694 l 0 1111 l 139 1111 l 139 972 l 278 972 l 278 694 l 0 694 m 416 694 l 416 1111 l 555 1111 l 555 972 l 694 972 l 694 694 l 416 694 m 139 1111 l 139 1250 l 278 1250 l 278 1111 l 139 1111 m 555 1111 l 555 1250 l 694 1250 l 694 1111 l 555 1111 z "},"”":{"ha":833,"x_min":0,"x_max":694,"o":"m 0 694 l 0 833 l 139 833 l 139 694 l 0 694 m 416 694 l 416 833 l 555 833 l 555 694 l 416 694 m 139 833 l 139 972 l 0 972 l 0 1250 l 278 1250 l 278 833 l 139 833 m 555 833 l 555 972 l 416 972 l 416 1250 l 694 1250 l 694 833 l 555 833 z "},"„":{"ha":833,"x_min":0,"x_max":694,"o":"m 0 -139 l 0 0 l 139 0 l 139 -139 l 0 -139 m 416 -139 l 416 0 l 555 0 l 555 -139 l 416 -139 m 139 0 l 139 139 l 0 139 l 0 416 l 278 416 l 278 0 l 139 0 m 555 0 l 555 139 l 416 139 l 416 416 l 694 416 l 694 0 l 555 0 z "},"†":{"ha":972,"x_min":0,"x_max":833,"o":"m 278 0 l 278 833 l 0 833 l 0 972 l 278 972 l 278 1250 l 555 1250 l 555 972 l 833 972 l 833 833 l 555 833 l 555 0 l 278 0 z "},"•":{"ha":694,"x_min":0,"x_max":555,"o":"m 139 278 l 139 416 l 0 416 l 0 694 l 139 694 l 139 833 l 416 833 l 416 694 l 555 694 l 555 416 l 416 416 l 416 278 l 139 278 z "},"…":{"ha":1111,"x_min":0,"x_max":972,"o":"m 0 0 l 0 278 l 278 278 l 278 0 l 0 0 m 416 0 l 416 278 l 694 278 l 694 0 l 416 0 m 833 0 l 833 278 l 972 278 l 972 0 l 833 0 z "},"‹":{"ha":694,"x_min":0,"x_max":555,"o":"m 278 278 l 278 416 l 139 416 l 139 555 l 0 555 l 0 694 l 139 694 l 139 833 l 278 833 l 278 972 l 555 972 l 555 833 l 416 833 l 416 694 l 278 694 l 278 555 l 416 555 l 416 416 l 555 416 l 555 278 l 278 278 z "},"›":{"ha":694,"x_min":0,"x_max":555,"o":"m 0 278 l 0 416 l 139 416 l 139 555 l 278 555 l 278 694 l 139 694 l 139 833 l 0 833 l 0 972 l 278 972 l 278 833 l 416 833 l 416 694 l 555 694 l 555 555 l 416 555 l 416 416 l 278 416 l 278 278 l 0 278 z "},"⁄":{"ha":1111,"x_min":0,"x_max":972,"o":"m 0 0 l 0 278 l 139 278 l 139 416 l 278 416 l 278 555 l 416 555 l 416 694 l 555 694 l 555 833 l 694 833 l 694 1111 l 972 1111 l 972 833 l 833 833 l 833 694 l 694 694 l 694 555 l 555 555 l 555 416 l 416 416 l 416 278 l 278 278 l 278 0 l 0 0 z "},"⁴":{"ha":972,"x_min":0,"x_max":833,"o":"m 555 278 l 555 555 l 0 555 l 0 1250 l 278 1250 l 278 694 l 555 694 l 555 1250 l 833 1250 l 833 278 l 555 278 z "},"€":{"ha":972,"x_min":0,"x_max":833,"o":"m 278 0 l 278 139 l 139 139 l 139 416 l 0 416 l 0 555 l 139 555 l 139 694 l 0 694 l 0 833 l 139 833 l 139 1111 l 278 1111 l 278 1250 l 694 1250 l 694 1111 l 833 1111 l 833 972 l 555 972 l 555 1111 l 416 1111 l 416 833 l 694 833 l 694 694 l 416 694 l 416 555 l 694 555 l 694 416 l 416 416 l 416 139 l 555 139 l 555 278 l 833 278 l 833 139 l 694 139 l 694 0 l 278 0 z "},"™":{"ha":1111,"x_min":0,"x_max":972,"o":"m 139 555 l 139 1111 l 0 1111 l 0 1250 l 555 1250 l 555 1111 l 833 1111 l 833 1250 l 972 1250 l 972 555 l 833 555 l 833 972 l 555 972 l 555 555 l 416 555 l 416 1111 l 278 1111 l 278 555 l 139 555 z "},"−":{"ha":972,"x_min":0,"x_max":833,"o":"m 0 555 l 0 694 l 833 694 l 833 555 l 0 555 z "},"∕":{"ha":972,"x_min":0,"x_max":833,"o":"m 0 0 l 0 278 l 139 278 l 139 555 l 278 555 l 278 833 l 416 833 l 416 1111 l 555 1111 l 555 1250 l 833 1250 l 833 1111 l 694 1111 l 694 833 l 555 833 l 555 555 l 416 555 l 416 278 l 278 278 l 278 0 l 0 0 z "}," ":{"ha":416,"x_min":0,"x_max":0,"o":""}}}
